<?xml version="1.0" encoding="UTF-8" standalone="no"?>
<svg
   xmlns:dc="http://purl.org/dc/elements/1.1/"
   xmlns:cc="http://creativecommons.org/ns#"
   xmlns:rdf="http://www.w3.org/1999/02/22-rdf-syntax-ns#"
   xmlns:svg="http://www.w3.org/2000/svg"
   xmlns="http://www.w3.org/2000/svg"
   xmlns:sodipodi="http://sodipodi.sourceforge.net/DTD/sodipodi-0.dtd"
   xmlns:inkscape="http://www.inkscape.org/namespaces/inkscape"
   version="1.1"
   width="422.85867"
   height="1425.2894"
   id="svg2"
   sodipodi:docname="centralparkunlabelled.svg"
   inkscape:version="1.0.2-2 (e86c870879, 2021-01-15)">
  <sodipodi:namedview
     pagecolor="#ffffff"
     bordercolor="#666666"
     borderopacity="1"
     objecttolerance="10"
     gridtolerance="10"
     guidetolerance="10"
     inkscape:pageopacity="0"
     inkscape:pageshadow="2"
     inkscape:window-width="1370"
     inkscape:window-height="795"
     id="namedview210"
     showgrid="false"
     inkscape:zoom="1.6471002"
     inkscape:cx="222.61714"
     inkscape:cy="926.37119"
     inkscape:window-x="0"
     inkscape:window-y="0"
     inkscape:window-maximized="0"
     inkscape:current-layer="layer1" />
  <defs
     id="defs4">
    <marker
       refX="0"
       refY="0"
       orient="auto"
       id="Arrow1Mend"
       style="overflow:visible">
      <path
         d="M 0,0 5,-5 -12.5,0 5,5 0,0 z"
         transform="matrix(-0.4,0,0,-0.4,-4,0)"
         id="path3857"
         style="fill-rule:evenodd;stroke:#000000;stroke-width:1pt;marker-start:none" />
    </marker>
  </defs>
  <metadata
     id="metadata7">
    <rdf:RDF>
      <cc:Work
         rdf:about="">
        <dc:format>image/svg+xml</dc:format>
        <dc:type
           rdf:resource="http://purl.org/dc/dcmitype/StillImage" />
        <dc:title></dc:title>
      </cc:Work>
    </rdf:RDF>
  </metadata>
  <g
     transform="translate(-145.69284,162.87025)"
     id="layer1">
    <path
       d="m 233.54791,-112.46863 248.7038,0 c 5.34505,0 9.6481,4.30305 9.6481,9.6481 l 0,1251.70383 c 0,5.345 -4.30305,9.6481 -9.6481,9.6481 l -243.3394,0 -15.0125,-14.0865 0,-1247.26543 c 0,-5.34505 4.30305,-9.6481 9.6481,-9.6481 z"
       id="rect3571"
       style="color:#000000;fill:#a0f090;fill-opacity:1;stroke:none;stroke-width:4;marker:none;visibility:visible;display:inline;overflow:visible;enable-background:accumulate" />
    <path
       d="m 397.91808,995.62501 c 0,0 -15.94809,-5.67043 -36.3262,-37.03501 0,0 -2.48081,-4.78443 -2.48081,-13.82168 0,-9.03725 2.48081,-40.57903 2.48081,-40.57903 0,0 -13.29007,-14.70768 -18.96051,-29.23816 0,0 -2.83521,-13.11287 -12.75847,-14.35328 -9.92325,-1.24041 -13.99888,13.64448 -13.99888,13.64448"
       id="path3243"
       style="fill:none;stroke:#cccccc;stroke-width:4;stroke-linecap:butt;stroke-linejoin:miter;stroke-opacity:1" />
    <path
       d="m 368.85712,1003.0674 c 0,0 6.02483,-16.47964 0.3544,-34.02254"
       id="path3247"
       style="color:#000000;fill:none;stroke:#cccccc;stroke-width:4;stroke-linecap:butt;stroke-linejoin:miter;stroke-miterlimit:4;stroke-opacity:1;stroke-dasharray:none;stroke-dashoffset:0;marker:none;visibility:visible;display:inline;overflow:visible;enable-background:accumulate" />
    <path
       d="m 303.61856,-112.23707 c 0,0 -1.11929,2.36309 -4.59375,5.46875 -3.47446,3.10566 -9.10879,6.65673 -18,8.124998 -9.66134,1.59545 -19.57817,3.10303 -27.5,7.59375 -7.92183,4.490716 -13.41252,12.858095 -12.53125,25 0.87988,12.12272 7.35603,19.167388 14.75,22.03125 7.39397,2.863862 15.34757,2.40625 20.78125,2.40625 5.81463,0 10.41635,-0.377532 13.625,0.3125 3.20865,0.690032 5.36402,1.90733 8.0625,6.6875 6.47979,11.478479 12.69673,16.639739 20.03125,23.625 6.47578,6.167407 6.5625,11.7752105 6.5625,18.1875 0,6.340218 -0.0275,15.81532 -15.4375,32.9375 -8.1278,9.030885 -11.63534,14.348038 -12.59375,19.75 -0.95841,5.401962 0.75749,9.193637 1.5,14.96875 0.80337,6.248498 1.40221,10.592449 0.96875,14.53125 -0.43346,3.938801 -1.80573,7.817959 -5.65625,13.593752 -8.00778,12.01167 -25.9375,36.34375 -25.9375,36.34375 l -0.3125,0.40625 -0.1875,0.5 c 0,0 -1.56494,4.20547 -2.125,11.90625 -0.56006,7.70078 -0.25629,19.26789 3,35.1875 3.14146,15.35827 3.62338,24.93042 1.90625,33.03125 -1.71713,8.10083 -5.73694,15.19242 -12.5,25.46875 -7.39625,11.23846 -7.53964,21.77147 -4.40625,30.09375 3.13339,8.32228 9.05928,14.57509 13.0625,19.1875 3.20752,3.69561 4.08265,8.2412 3.3125,13.59375 -0.77015,5.35255 -3.35136,11.27703 -6.8125,16.46875 -3.68058,5.52087 -10.16039,14.88203 -15.78125,23.75 -2.81043,4.43398 -5.38877,8.75305 -7.375,12.5 -1.98623,3.74695 -3.49759,6.53121 -3.75,9.8125 -0.59135,7.68763 -0.45373,31.19134 2,44.78125 2.35779,13.05849 5.57323,20.76073 13.15625,28.34375 3.874,3.874 11.43346,10.19482 18.1875,17.25 6.75404,7.05518 12.1459,15.04287 12.375,19.28125 0.67474,12.48257 -1.12265,37.07989 -8.90625,56.03125 l -8.15625,19.84375 -0.28125,0.71875 -0.0312,0.75 c 0,0 -0.20415,12.39039 7.03125,25.71875 3.53227,6.50681 7.41942,11.68465 10.21875,16.53125 2.79933,4.8466 4.5625,9.19715 4.5625,14.6875 0,11.49921 -5.65238,20.96648 -11.96875,37.75 -3.1825,8.45634 -4.56665,14.33147 -5.125,18.53125 -0.55835,4.19978 -0.28125,7.01852 -0.28125,7.6875 0,-0.49942 -0.0392,0.13825 -0.1875,0.8125 -0.14826,0.67425 -0.36244,1.5914 -0.65625,2.6875 -0.58763,2.1922 -1.43024,5.04505 -2.34375,8.09375 -1.82702,6.0974 -3.97443,13.00396 -5.3125,17.375 -1.31519,4.29628 -4.50803,14.47082 -7.59375,24.59375 -3.08572,10.12293 -6.03961,19.99556 -7.03125,24.65625 -1.73283,8.14432 -5.63735,21.97559 -0.0937,34.5 2.81642,6.36304 9.09492,14.58754 15.25,22.4375 6.15508,7.84996 12.363,15.51125 13.6875,17.71875 3.91145,6.51909 8.82205,13.6041 8.28125,20.09375 -0.53012,6.36136 -7.31903,14.66787 -12.875,19.71875 -2.85239,2.59308 -4.51886,3.91192 -5.375,4.53125 -0.33449,0.24197 -0.44358,0.32177 -0.53125,0.375 l -2.5,0.6875 0,3.03125 c 0,0 -0.0615,38.10975 3.0625,58.875 1.47802,9.82445 2.64003,22.24423 3.1875,33.28125 0.54305,10.94781 0.37494,20.80369 -0.3125,24.59375 -0.1273,0.3847 -8.0679,24.43827 -14.0625,43.65627 -6.14104,19.6875 -8.74003,38.023 -7.4375,53.2813 0.62424,7.3125 0.91157,11.1173 3.1875,14.5312 2.27593,3.4139 5.22701,4.766 10.125,8.375 10.29315,7.5844 23.03445,15.2378 50.21875,17.5938 13.599,1.1785 24.86004,0.5951 34.03125,-2.0938 9.17121,-2.6889 16.29932,-7.662 20.75,-14.8438 4.16167,-6.7154 5.73298,-12.4057 5.34375,-18.0624 -0.38923,-5.6568 -2.37876,-10.9063 -4.5625,-18.1563 -4.09667,-13.6009 -3.45748,-34.1861 -0.5,-45.6875 3.23859,-12.5944 3.52436,-20.9028 3.53125,-21.125 0,0 0.10521,-1.5349 0.6875,-3.2812 0.58229,-1.7464 1.55677,-3.1693 2.5,-3.5938 5.53021,-2.4886 11.06805,-6.2813 25.0625,-6.2813 14.7176,0 21.0625,0.375 21.0625,0.375 l 1.65625,0.094 1.25,-1.125 c 0,0 11.90238,-10.49984 16.5625,-26.12497 2.32377,-7.79143 1.99473,-14.22551 1.09375,-19.53125 -0.90098,-5.30574 -2.15625,-9.44803 -2.15625,-13.4375 0,-6.65364 4.59702,-16.66181 9.625,-27.21875 5.02798,-10.55694 10.40625,-21.79036 10.40625,-32.9375 0,-17.19726 -3.33691,-28.559 -21.40625,-47.375 -7.46965,-7.77831 -12.57961,-14.09673 -13.96875,-22 -1.38914,-7.90327 0.76568,-18.26868 9.8125,-34.40625 9.76557,-17.41966 8.01167,-31.15572 2.6875,-43.09375 -5.32417,-11.93803 -13.47292,-22.56737 -17.375,-36.875 -7.16218,-26.26134 -4.66202,-50.17995 0.1875,-71.40625 l 0.0312,0 c 0.007,-0.0293 -0.007,-0.0645 0,-0.0937 0.0363,-0.14264 3.46489,-13.58659 2.9375,-27.5625 -0.26068,-6.90804 -1.37936,-19.01274 -1.75,-30.71875 -0.18532,-5.85301 -0.18537,-11.59109 0.1875,-16.375 0.36978,-4.74424 1.24455,-8.59247 2.09375,-10.25 l 0.0312,-0.0625 c 5.55363,-10.60238 10.08986,-21.08246 39.34375,-33.25 7.22374,-3.00456 12.49559,-5.6767 16.5,-8.625 4.00441,-2.9483 6.74109,-6.31738 8.1875,-10.1875 2.89281,-7.74023 1.17909,-15.95461 0.5625,-28.65625 -1.26326,-26.0232 -3.24437,-24.73503 -2.5,-47.5625 0.76052,-23.32257 1.75,-124.875 1.75,-124.875 l 0,-1.0625 -0.5,-0.90625 c 0,0 -5.61303,-10.25935 -11.5,-21.03125 -5.88697,-10.7719 -12.20486,-22.40973 -12.96875,-23.9375 -1.7961,-3.5922 -4.69732,-11.1962 -13.59375,-17.3125 -4.37244,-3.00605 -9.58591,-5.6995 -13.78125,-10.28125 -4.19534,-4.58175 -7.54828,-10.89432 -7.78125,-21.84375 -0.50228,-23.60708 -1.15247,-36.67906 7.03125,-48.5 9.2918,-13.42147 11.00703,-21.84987 10.75,-34.1875 -0.26841,-12.883576 -4.72349,-21.102824 -10.46875,-32.093752 -2.83153,-5.416849 -8.40319,-16.580553 -13.03125,-27.71875 -2.31403,-5.569098 -4.38131,-11.126252 -5.78125,-15.90625 -1.39994,-4.779998 -2.00652,-8.895001 -1.8125,-10.71875 0.52365,-4.92231 3.26171,-12.029596 6.1875,-18.125 2.92579,-6.095404 5.8204,-10.909781 7,-13.4375 0.86681,-1.857452 2.875,-5.806325 2.875,-10.59375 0,-4.787425 -2.96775,-10.493327 -9.71875,-13.34375 -3.58837,-1.515091 -7.27433,-1.615438 -10.40625,-0.625 -3.13192,0.990438 -5.65864,2.908642 -7.78125,5.03125 -4.24522,4.245216 -7.18193,9.620421 -9.21875,12.5625 -2.66068,3.843203 -4.98914,8.97861 -7.78125,12.46875 -1.39606,1.7450701 -2.82843,2.9954506 -4.09375,3.5625 -1.26532,0.5670494 -2.34402,0.6930852 -4.25,0 -5.10173,-1.8551736 -6.85987,-3.3211566 -7.75,-5.1875 -0.89013,-1.866343 -1.08308,-5.315576 -0.59375,-11.1875 0.91534,-10.984125 5.05553,-20.150588 -1.84375,-72.90625 0.5722,-0.264443 0.41302,-0.277841 1.8125,-0.78125 2.84842,-1.024613 7.45493,-2.389557 14.25,-3.59375 7.86463,-1.39373 12.91709,-5.063 15.78125,-8.499998 2.86416,-3.437 3.71875,-6.9375 3.71875,-6.9375 l -7.78125,-1.8125 c 0,0 -0.30639,1.48017 -2.09375,3.625 -1.78736,2.14483 -4.897,4.66292 -11.03125,5.75 -7.20381,1.27663 -12.25319,2.747098 -15.5625,3.937498 -2.21187,0.79564 -2.6289,1.10186 -3.40625,1.5 -2.07759,-0.49396 -23.02572,-5.467708 -35,-6.718748 -5.11158,-0.53405 -7.84891,-2.31685 -9.46875,-4.0625 -1.61984,-1.74565 -2.03125,-3.89489 -2.03125,-3.8125 l -7.5625,-1.78125 z m 2.5,9.46875 c 0.39094,0.51788 0.73692,1.04325 1.21875,1.5625 2.94309,3.171678 7.73911,5.887388 14.5,6.593748 9.88532,1.032788 27.70802,5.091195 32.1875,6.125 6.93727,52.649416 2.89389,59.085777 1.84375,71.6875 -0.51307,6.156878 -0.73662,10.950542 1.34375,15.3125 2.08037,4.3619584 6.29408,7.0955728 12.21875,9.25 3.60722,1.3117152 7.31769,1.0781135 10.28125,-0.25 2.96356,-1.3281135 5.20076,-3.5165693 7.0625,-5.84375 3.72349,-4.6543615 6.27487,-10.265101 8.125,-12.9375 2.47398,-3.573522 5.19642,-8.352664 8.28125,-11.4375 1.54242,-1.542418 3.08189,-2.604156 4.53125,-3.0625 1.44936,-0.458344 2.82487,-0.490609 4.875,0.375 4.526,1.910978 4.84375,3.614073 4.84375,5.96875 0,2.354677 -1.23761,5.317201 -2.125,7.21875 -0.5746,1.231282 -3.84889,6.909151 -6.9375,13.34375 -3.08861,6.4345986 -6.2394,13.894107 -6.96875,20.75 -0.43248,4.065352 0.5648,8.59199 2.09375,13.8125 1.52895,5.22051 3.70903,10.979521 6.09375,16.71875 4.76944,11.478458 10.38023,22.765447 13.3125,28.375 5.78234,11.061878 9.32971,17.388464 9.5625,28.562502 0.24417,11.71997 -0.56108,16.79657 -9.3125,29.4375 -9.85948,14.24148 -8.96887,29.74426 -8.46875,53.25 0.26823,12.60697 4.54753,21.24435 9.875,27.0625 5.32747,5.81815 11.50948,8.9616 15.15625,11.46875 7.14197,4.9101 8.75525,9.85425 10.96875,14.28125 l 0,0.0312 c 1.2491,2.49619 7.20841,13.38732 13.09375,24.15625 5.63057,10.30275 10.56435,19.27412 11.03125,20.125 -0.019,1.91776 -1.01404,101.118 -1.75,123.6875 -0.75923,23.28295 1.25726,22.5871 2.5,48.1875 0.63642,13.11017 1.68079,20.80428 -0.0625,25.46875 -0.87164,2.33223 -2.28422,4.26386 -5.40625,6.5625 -3.12203,2.29864 -7.93984,4.80296 -14.875,7.6875 -30.60791,12.73072 -37.87098,26.45823 -43.34375,36.90625 -1.90065,3.62852 -2.58974,8.14266 -3,13.40625 -0.41026,5.26359 -0.40933,11.23083 -0.21875,17.25 0.38116,12.03834 1.50948,24.37624 1.75,30.75 0.47221,12.51357 -2.71875,25.4375 -2.71875,25.4375 l 0,0.0312 0,0.0312 c -5.02203,21.94216 -7.74892,47.45186 -0.125,75.40625 4.36772,16.01497 12.98751,27.32138 17.75,38 4.76249,10.67862 6.40384,20.2467 -2.375,35.90625 -9.49758,16.94164 -12.52483,29.26556 -10.6875,39.71875 1.83733,10.45319 8.37085,18.14676 16.0625,26.15625 17.40188,18.12096 19.1875,25.46061 19.1875,41.84375 0,8.41412 -4.62897,19.01015 -9.625,29.5 -4.99603,10.48985 -10.40625,20.77029 -10.40625,30.65625 0,5.53333 1.49067,10.12564 2.28125,14.78125 0.79058,4.65561 1.06144,9.38223 -0.875,15.875 -3.25264,10.90592 -10.78412,19.03653 -13.1875,21.4375 -1.05581,-0.0548 -6.10619,-0.34375 -19.6875,-0.34375 -15.57637,0 -23.84996,4.97779 -28.34375,7.00002 -4.06877,1.8309 -5.8754,5.5332 -6.8125,8.3438 -0.9371,2.8105 -1.0625,5.2813 -1.0625,5.2813 l -0.0312,0.062 0,0.094 c 0,0 -0.18412,7.4557 -3.28125,19.5 -3.42174,13.3068 -4.16964,34.1855 0.59375,50 2.24628,7.4577 3.97472,12.3743 4.25,16.375 0.27528,4.0007 -0.55232,7.4466 -4.1875,13.3125 -3.34616,5.3995 -8.43602,9.1023 -16.1875,11.375 -7.75148,2.2727 -18.1126,2.9375 -31.09375,1.8125 -25.976,-2.2512 -36.2485,-8.7621 -46.15625,-16.0625 -5.20247,-3.8334 -7.48226,-5.2703 -8.21875,-6.375 -0.73649,-1.1047 -1.25883,-3.5633 -1.875,-10.7813 -1.17829,-13.8027 1.18513,-31.2764 7.09375,-50.2187 6.00729,-19.2587 14.15625,-43.87507 14.15625,-43.87507 l 0.0937,-0.25 0.0312,-0.25 c 1.07016,-5.67184 0.99754,-15.36595 0.4375,-26.65625 -0.56004,-11.2903 -1.7156,-23.86324 -3.25,-34.0625 -2.75833,-18.33485 -2.92489,-52.10481 -2.9375,-55.5625 1.22616,-0.90303 2.91331,-2.26494 5.75,-4.84375 6.13929,-5.58118 14.58125,-14.28756 15.46875,-24.9375 0.8768,-10.52165 -5.87526,-19.02128 -9.40625,-24.90625 -2.39672,-3.99454 -8.14696,-10.78752 -14.21875,-18.53125 -6.07179,-7.74373 -12.282,-16.27253 -14.25,-20.71875 -4.02526,-9.09411 -1.21744,-21.11242 0.59375,-29.625 0.78037,-3.66776 3.77173,-13.92202 6.84375,-24 3.07202,-10.07798 6.25092,-20.17593 7.59375,-24.5625 1.31994,-4.31181 3.5251,-11.26373 5.375,-17.4375 0.92495,-3.08689 1.74991,-5.98053 2.375,-8.3125 0.31255,-1.16598 0.55839,-2.15984 0.75,-3.03125 0.19161,-0.87141 0.375,-1.41162 0.375,-2.53125 0,-1.81184 -0.2418,-3.16084 0.21875,-6.625 0.46055,-3.46416 1.63671,-8.7579 4.65625,-16.78125 6.08769,-16.17588 12.5,-26.54477 12.5,-40.5625 0,-7.26813 -2.51934,-13.25644 -5.65625,-18.6875 -3.13691,-5.43106 -6.89238,-10.44649 -10.09375,-16.34375 l 0,-0.0312 c -5.92214,-10.92527 -6.0004,-20.21655 -6,-21.125 l 7.78125,-19 c 8.5189,-20.74166 10.27413,-45.78808 9.53125,-59.53125 -0.4797,-8.87449 -7.43751,-16.8997 -14.59375,-24.375 -7.15624,-7.4753 -15.09846,-14.16096 -18.3125,-17.375 -6.59306,-6.59306 -8.68805,-11.66655 -10.9375,-24.125 -2.15349,-11.92703 -2.34685,-36.61595 -1.875,-42.75 0.0134,-0.17413 0.99445,-3.22656 2.8125,-6.65625 1.81805,-3.42969 4.3445,-7.63129 7.09375,-11.96875 5.4985,-8.67493 11.89439,-17.95096 15.65625,-23.59375 3.9813,-5.97195 7.06064,-12.78708 8.0625,-19.75 1.00186,-6.96292 -0.24377,-14.30396 -5.1875,-20 -4.14803,-4.77924 -9.22086,-10.3646 -11.625,-16.75 -2.40414,-6.3854 -2.62322,-13.41219 3.625,-22.90625 6.88142,-10.45619 11.60786,-18.52393 13.65625,-28.1875 2.04839,-9.66357 1.30027,-20.45214 -1.9375,-36.28125 -3.12295,-15.26776 -3.3469,-26.11294 -2.84375,-33.03125 0.45691,-6.2825 1.33015,-8.70298 1.5,-9.15625 0.68189,-0.9249 17.61929,-23.92895 25.75,-36.125 4.30072,-6.45108 6.3833,-11.836301 6.96875,-17.156252 0.58545,-5.319951 -0.20857,-10.250679 -1,-16.40625 -0.8523,-6.628957 -2.06599,-9.755866 -1.5625,-12.59375 0.50349,-2.837884 2.83596,-7.092035 10.65625,-15.78125 16.48622,-18.31802 17.5,-31.508594 17.5,-38.28125 0,-6.7005843 -0.62215,-15.991327 -9.03125,-24 -7.55036,-7.190819 -12.66946,-11.255555 -18.59375,-21.75 -3.50355,-6.206292 -8.3438,-9.480522 -13.375,-10.5625 -5.0312,-1.081978 -9.93222,-0.5 -15.28125,-0.5 -5.72998,0 -12.71895,0.165416 -17.90625,-1.84375 -5.1873,-2.009166 -8.91007,-5.337296 -9.625,-15.1875 -0.71354,-9.831018 2.4803,-14.042772 8.46875,-17.4375 5.98845,-3.394728 15.22143,-5.062082 24.875,-6.65625 10.4237,-1.721346 17.54471,-6.08012 22,-10.062498 0.80755,-0.72183 1.13328,-1.27396 1.78125,-1.96875 z"
       id="path3094"
       style="font-size:medium;font-style:normal;font-variant:normal;font-weight:normal;font-stretch:normal;text-indent:0;text-align:start;text-decoration:none;line-height:normal;letter-spacing:normal;word-spacing:normal;text-transform:none;direction:ltr;block-progression:tb;writing-mode:lr-tb;text-anchor:start;color:#000000;fill:#b3b3b3;fill-opacity:1;stroke:none;stroke-width:1;marker:none;visibility:visible;display:inline;overflow:visible;enable-background:accumulate;font-family:Andale Mono;-inkscape-font-specification:Andale Mono" />
    <path
       d="m 231.49356,510.70043 -0.90625,8.1875 c 24.44048,5.55465 33.3125,40.125 33.3125,40.125 l 7.8125,-1.84375 c 0,0 -9.52721,-39.4934 -40.21875,-46.46875 z"
       id="path3096"
       style="font-size:medium;font-style:normal;font-variant:normal;font-weight:normal;font-stretch:normal;text-indent:0;text-align:start;text-decoration:none;line-height:normal;letter-spacing:normal;word-spacing:normal;text-transform:none;direction:ltr;block-progression:tb;writing-mode:lr-tb;text-anchor:start;color:#000000;fill:#b3b3b3;fill-opacity:1;fill-rule:nonzero;stroke:none;stroke-width:1;marker:none;visibility:visible;display:inline;overflow:visible;enable-background:accumulate;font-family:Andale Mono;-inkscape-font-specification:Andale Mono" />
    <path
       d="m 427.89981,832.48168 c -12.77567,8.93057 -20.78322,13.36651 -26.96875,15.71875 -6.18553,2.35224 -10.68321,2.74658 -17.21875,3.375 -6.44897,0.62009 -10.7875,0.85873 -14.71875,1.46875 -3.93125,0.61002 -7.43888,1.65694 -11.5,3.6875 -4.93567,2.46783 -9.67834,7.29872 -14.9375,11.5 -5.25916,4.20128 -10.70934,7.375 -14.34375,7.375 -4.24047,0 -11.90603,-2.41749 -19.125,-5.03125 -7.21897,-2.61376 -13.59308,-5.5 -19.21875,-5.5 -5.22567,0 -9.13924,2.69631 -12.8125,4.96875 -3.67326,2.27244 -7.22284,4.35363 -11.875,5.09375 -1.85476,0.29508 -2.55127,0.0344 -3.46875,-0.71875 -0.91748,-0.75312 -1.99146,-2.36433 -2.9375,-4.75 -1.89209,-4.77135 -3.19054,-12.26612 -5.125,-19.875 -2.22001,-8.73203 -8.70762,-12.85642 -14.03125,-14 -5.32363,-1.14358 -9.9375,0 -9.9375,0 l 1.875,7.78125 c 0,0 3.06997,-0.67871 6.375,0.0312 3.30503,0.70996 6.42975,2.10287 7.96875,8.15625 1.82454,7.17652 3.00674,14.714 5.4375,20.84375 1.21538,3.06488 2.74515,5.88696 5.28125,7.96875 2.5361,2.08179 6.15406,3.05077 9.8125,2.46875 6.37424,-1.01408 11.09306,-3.91774 14.8125,-6.21875 3.71944,-2.30101 6.33267,-3.75 8.625,-3.75 1.89234,0 9.15291,2.38241 16.46875,5.03125 7.31584,2.64884 15.08907,5.5 21.875,5.5 7.39199,0 13.70181,-4.61793 19.34375,-9.125 5.64194,-4.50707 10.91767,-9.30258 13.5,-10.59375 3.45688,-1.72844 5.8201,-2.41982 9.15625,-2.9375 3.33615,-0.51768 7.66777,-0.80459 14.25,-1.4375 6.49567,-0.62458 12.15358,-1.12134 19.3125,-3.84375 7.15892,-2.72241 15.68262,-7.54361 28.71875,-16.65625 l -4.59375,-6.5312 z"
       id="path3098"
       style="font-size:medium;font-style:normal;font-variant:normal;font-weight:normal;font-stretch:normal;text-indent:0;text-align:start;text-decoration:none;line-height:normal;letter-spacing:normal;word-spacing:normal;text-transform:none;direction:ltr;block-progression:tb;writing-mode:lr-tb;text-anchor:start;color:#000000;fill:#b3b3b3;fill-opacity:1;fill-rule:nonzero;stroke:none;stroke-width:1;marker:none;visibility:visible;display:inline;overflow:visible;enable-background:accumulate;font-family:Andale Mono;-inkscape-font-specification:Andale Mono" />
    <path
       d="m 422.71231,836.48168 -1.8125,7.78125 14.40625,3.40625 0.28125,0.0625 0.3125,0.0312 c 0,0 26.01462,2.01581 54.875,0.75 l -0.375,-8 c -28.06071,1.23073 -53.2384,-0.68901 -53.625,-0.71875 l -14.0625,-3.3125 z"
       id="path3100"
       style="font-size:medium;font-style:normal;font-variant:normal;font-weight:normal;font-stretch:normal;text-indent:0;text-align:start;text-decoration:none;line-height:normal;letter-spacing:normal;word-spacing:normal;text-transform:none;direction:ltr;block-progression:tb;writing-mode:lr-tb;text-anchor:start;color:#000000;fill:#b3b3b3;fill-opacity:1;fill-rule:nonzero;stroke:none;stroke-width:1;marker:none;visibility:visible;display:inline;overflow:visible;enable-background:accumulate;font-family:Andale Mono;-inkscape-font-specification:Andale Mono" />
    <path
       d="m 306.14981,1130.2004 0,29.0626 8,0 0,-29.0626 -8,0 z"
       id="path3102"
       style="font-size:medium;font-style:normal;font-variant:normal;font-weight:normal;font-stretch:normal;text-indent:0;text-align:start;text-decoration:none;line-height:normal;letter-spacing:normal;word-spacing:normal;text-transform:none;direction:ltr;block-progression:tb;writing-mode:lr-tb;text-anchor:start;color:#000000;fill:#b3b3b3;fill-opacity:1;fill-rule:nonzero;stroke:none;stroke-width:1;marker:none;visibility:visible;display:inline;overflow:visible;enable-background:accumulate;font-family:Andale Mono;-inkscape-font-specification:Andale Mono" />
    <path
       d="m 227.36856,131.35668 -0.8125,7.9375 c 24.45055,2.49495 43.90625,5.5 43.90625,5.5 l 1.21875,-7.90625 c 0,0 -19.64543,-3.0142 -44.3125,-5.53125 z"
       id="path3151"
       style="font-size:medium;font-style:normal;font-variant:normal;font-weight:normal;font-stretch:normal;text-indent:0;text-align:start;text-decoration:none;line-height:normal;letter-spacing:normal;word-spacing:normal;text-transform:none;direction:ltr;block-progression:tb;writing-mode:lr-tb;text-anchor:start;color:#000000;fill:#b3b3b3;fill-opacity:1;fill-rule:nonzero;stroke:none;stroke-width:1;marker:none;visibility:visible;display:inline;overflow:visible;enable-background:accumulate;font-family:Andale Mono;-inkscape-font-specification:Andale Mono" />
    <path
       d="m 268.71231,957.54418 c -18.92985,4.47432 -36.62736,4.16941 -36.62736,4.16941 l -0.0237,8.04419 c 0,0 18.44041,0.30777 38.49478,-4.43235 l -1.84372,-7.78125 z"
       id="path3161"
       style="font-size:medium;font-style:normal;font-variant:normal;font-weight:normal;font-stretch:normal;text-indent:0;text-align:start;text-decoration:none;line-height:normal;letter-spacing:normal;word-spacing:normal;text-transform:none;direction:ltr;block-progression:tb;writing-mode:lr-tb;text-anchor:start;color:#000000;fill:#b3b3b3;fill-opacity:1;fill-rule:nonzero;stroke:none;stroke-width:1;marker:none;visibility:visible;display:inline;overflow:visible;enable-background:accumulate;font-family:Andale Mono;-inkscape-font-specification:Andale Mono" />
    <path
       d="m 298.94273,-33.333039 c 0,0 -1.79105,0.06536 -7.63667,2.283467 -2.92281,1.109051 -5.90095,2.562151 -8.34375,4.53125 -2.4428,1.969099 -4.40604,4.578873 -4.6875,7.84375 -0.34935,4.052426 0.78954,7.35366 2.125,10.375 -2.79017,0.729568 -6.35106,1.863027 -10.375,3.25 -5.23421,1.8041316 -10.31762,3.6941595 -12.34375,4.5625 -2.34659,1.0056837 -5.04948,3.121872 -7.34375,5.875 -2.29427,2.753128 -4.19488,6.175132 -3.96875,9.90625 0.21974,3.625792 2.26555,6.980802 5.125,9.59375 2.85945,2.612948 6.60265,4.528456 10.625,5.03125 4.25439,0.531799 7.86019,-1.368897 10.78125,-3.625 2.92106,-2.256103 5.3733,-4.961138 7.375,-6.5625 2.24548,-1.796388 3.71424,-3.082467 4.84375,-5 1.12951,-1.917533 1.81906,-4.190733 3.0625,-8.1875 1.49677,-4.8110395 -0.59738,-8.9982458 -2.53125,-12.84375 -1.93387,-3.845504 -3.79436,-7.529186 -3.40625,-12.03125 0.16155,-1.873952 1.29244,-3.509729 3.21875,-5.0625 1.92631,-1.552771 4.56883,-2.888889 7.25,-3.90625 5.36234,-2.034721 8.47618,-2.426867 8.47618,-2.426867 l -2.24576,-3.6066 z m -16.88667,28.783467 c 0.006,0.01136 0.0255,0.0199 0.0312,0.03125 1.92026,3.8184389 3.26529,6.7119946 2.28125,9.875 -1.23738,3.9772777 -1.94335,6.058615 -2.71875,7.375 -0.7754,1.316385 -1.69046,2.158619 -3.875,3.90625 -2.42833,1.942658 -4.78463,4.54758 -7.3125,6.5 -2.52787,1.95242 -5.0101,3.166706 -7.84375,2.8125 -3.06569,-0.383211 -6.15812,-1.917122 -8.4375,-4 -2.27938,-2.082878 -3.67784,-4.68441 -3.8125,-6.90625 -0.12827,-2.116515 1.14825,-4.79665 3.0625,-7.09375 1.91425,-2.2971005 4.43787,-4.1608747 5.8125,-4.75 1.69509,-0.7264685 6.88615,-2.6845616 12.0625,-4.46875 4.53081,-1.561684 8.53463,-2.750085 10.75,-3.28125 l 5e-5,0 z"
       id="path3231"
       style="font-size:medium;font-style:normal;font-variant:normal;font-weight:normal;font-stretch:normal;text-indent:0;text-align:start;text-decoration:none;line-height:normal;letter-spacing:normal;word-spacing:normal;text-transform:none;direction:ltr;block-progression:tb;writing-mode:lr-tb;text-anchor:start;color:#000000;fill:#cccccc;fill-opacity:1;stroke:none;stroke-width:4;marker:none;visibility:visible;display:inline;overflow:visible;enable-background:accumulate;font-family:Andale Mono;-inkscape-font-specification:Andale Mono" />
    <path
       d="m 401.33731,31.325428 c -1.7322,-0.01936 -3.63269,0.04829 -5.59375,0.3125 -7.84423,1.056858 -17.15333,5.222626 -21.5,16.65625 -8.10747,21.326188 -12.7615,27.961239 -21.875,37.25 -4.08402,4.162553 -9.95406,5.427291 -15.65625,5.40625 -5.70219,-0.02104 -11.0592,-1.360034 -13.78125,-2.0625 -5.45418,-1.407532 -15.5625,-4.153437 -15.5625,-4.153437 l -0.0312,4.11718 c 0,0 9.06147,2.483573 14.59375,3.911257 2.77118,0.715142 8.47807,2.164241 14.78125,2.1875 6.30318,0.02326 13.36956,-1.3959 18.5,-6.625 9.3154,-9.494543 14.58624,-17.037296 22.78125,-38.59375 3.80458,-10.007697 11.3292,-13.188347 18.28125,-14.125 2.582,-0.347875 7.13681,-0.197017 7.13681,-0.197017 l -1.08071,-4.0801 c 0,0 4.20301,0.05395 -0.9936,-0.0041 l 0,-3.3e-5 z"
       id="path3233"
       style="font-size:medium;font-style:normal;font-variant:normal;font-weight:normal;font-stretch:normal;text-indent:0;text-align:start;text-decoration:none;line-height:normal;letter-spacing:normal;word-spacing:normal;text-transform:none;direction:ltr;block-progression:tb;writing-mode:lr-tb;text-anchor:start;color:#000000;fill:#cccccc;fill-opacity:1;stroke:none;stroke-width:4;marker:none;visibility:visible;display:inline;overflow:visible;enable-background:accumulate;font-family:Andale Mono;-inkscape-font-specification:Andale Mono" />
    <path
       d="m 243.75137,787.71495 c 0,0 -2.0372,8.83815 -3.45703,48.23828 l 3.94531,1.53907 c 1.41539,-39.27711 2.64844,-42.36328 2.64844,-42.36328 l -3.13672,-7.41407 z"
       id="path3237"
       style="font-size:medium;font-style:normal;font-variant:normal;font-weight:normal;font-stretch:normal;text-indent:0;text-align:start;text-decoration:none;line-height:normal;letter-spacing:normal;word-spacing:normal;text-transform:none;direction:ltr;block-progression:tb;writing-mode:lr-tb;text-anchor:start;color:#000000;fill:#cccccc;fill-opacity:1;stroke:none;stroke-width:4;marker:none;visibility:visible;display:inline;overflow:visible;enable-background:accumulate;font-family:Andale Mono;-inkscape-font-specification:Andale Mono" />
    <path
       d="m 344.65595,843.70801 a 10.543459,10.543459 0 1 1 -21.08692,0 10.543459,10.543459 0 1 1 21.08692,0 z"
       transform="translate(-6.10019,6.169178)"
       id="path3251"
       style="color:#000000;fill:none;stroke:#cccccc;stroke-width:4;stroke-linecap:butt;stroke-linejoin:miter;stroke-miterlimit:4;stroke-opacity:1;stroke-dasharray:none;stroke-dashoffset:0;marker:none;visibility:visible;display:inline;overflow:visible;enable-background:accumulate" />
    <path
       d="m 447.74356,543.29418 0,5.28125 -17.5625,0 0,11.75 17.5625,0 0,18.8125 -17.5625,0 0,11.78125 17.5625,0 0,24.0625 -16.28125,0 0,16.03125 16.28125,0 0,3.25 31.5625,0 0,-90.96875 -31.5625,0 z"
       id="rect3358"
       style="color:#000000;fill:#a05a2c;fill-opacity:1;stroke:#803300;stroke-width:3;stroke-linecap:butt;stroke-linejoin:miter;stroke-miterlimit:4;stroke-opacity:1;stroke-dasharray:none;stroke-dashoffset:0;marker:none;visibility:visible;display:inline;overflow:visible;enable-background:accumulate" />
    <rect
       width="19.296206"
       height="59.266914"
       ry="9.6481028"
       x="444.4787"
       y="764.57751"
       id="rect3367"
       style="color:#000000;fill:#9ec7f3;fill-opacity:1;stroke:#0000ff;stroke-width:1;stroke-linecap:butt;stroke-linejoin:miter;stroke-miterlimit:4;stroke-opacity:1;stroke-dasharray:none;stroke-dashoffset:0;marker:none;visibility:visible;display:inline;overflow:visible;enable-background:accumulate" />
    <path
       d="m 391.06139,-29.478218 a 7.1421046,7.1421046 0 1 1 -14.28421,0 7.1421046,7.1421046 0 1 1 14.28421,0 z"
       transform="translate(-6.10019,6.169178)"
       id="path3373"
       style="color:#000000;fill:#a05a2c;fill-opacity:1;stroke:#803300;stroke-width:4;stroke-linecap:butt;stroke-linejoin:miter;stroke-miterlimit:4;stroke-opacity:1;stroke-dasharray:none;stroke-dashoffset:0;marker:none;visibility:visible;display:inline;overflow:visible;enable-background:accumulate" />
    <path
       d="m 244.28482,108.20241 c 0,0 7.08804,-0.443 9.12585,1.59481 2.03781,2.03781 3.63262,1.77201 5.13883,-0.9746 1.50621,-2.74662 5.49323,-7.44245 9.74606,-9.303059 4.25282,-1.860611 5.58183,-1.77201 7.44244,-4.873028 1.86061,-3.101017 4.96162,-6.645037 5.58183,-7.796844 0.6202,-1.151806 -0.1772,-3.012417 -2.12641,-3.012417 -1.94921,0 -4.07563,0.177201 -6.11344,2.126412 -2.03781,1.949211 -5.22743,6.910839 -8.32844,6.645038 -3.10102,-0.265802 -5.75904,-2.480814 -8.86005,1.594809 -3.10102,4.075623 -6.37924,10.632059 -8.68285,11.961069 -2.30362,1.32901 -3.63262,1.32901 -2.92382,2.03781 z"
       id="path3375"
       style="color:#000000;fill:#9ec7f3;fill-opacity:1;fill-rule:nonzero;stroke:#0000ff;stroke-width:1;stroke-linecap:butt;stroke-linejoin:miter;stroke-miterlimit:4;stroke-opacity:1;stroke-dasharray:none;stroke-dashoffset:0;marker:none;visibility:visible;display:inline;overflow:visible;enable-background:accumulate" />
    <path
       d="m 267.85255,345.47455 c 0,0 -4.96163,1.41761 -3.72122,6.73364 1.24041,5.31603 1.24041,2.30361 -1.41761,8.86005 -2.65801,6.55643 -3.36682,15.06208 -3.36682,19.49211 0,4.43002 0.70881,24.27653 5.67044,29.76976 4.96162,5.49323 5.31603,8.32845 6.20203,12.93568 0.88601,4.60722 3.18962,13.46727 6.02484,16.65689 2.83521,3.18962 4.25282,2.12641 4.60722,7.26524 0.3544,5.13883 -3.72122,11.51807 6.20204,15.23929 9.92325,3.72122 24.09933,2.12641 26.04854,2.12641 1.94921,0 3.36682,0.3544 4.07563,0.886 0.7088,0.53161 6.55643,4.60723 11.87246,4.43003 5.31603,-0.1772 33.66819,-6.91084 44.12305,-7.08804 10.45486,-0.1772 8.32845,6.73364 19.84651,11.16366 11.51807,4.43003 14.35328,11.34087 16.8341,12.75847 2.48081,1.41761 13.11287,11.16367 18.0745,11.16367 4.96163,0 13.29007,0 15.59369,-3.89843 2.30361,-3.89842 5.84763,-6.20203 8.50564,-6.91083 2.65802,-0.70881 6.20204,-3.36682 6.02484,-5.13883 -0.1772,-1.77201 1.59481,-4.25283 2.30361,-5.49323 0.70881,-1.24041 0.88601,-1.94922 1.06321,-4.07563 0.1772,-2.12641 1.0632,-155.93688 1.0632,-159.6581 0,-3.72122 0,-10.80926 -1.94921,-12.75847 -1.94921,-1.94921 -4.78442,-6.73364 -5.31603,-10.45486 -0.5316,-3.72122 -4.78442,-13.11287 -5.67043,-13.29007 -0.886,-0.1772 -3.18962,-2.12641 -3.72122,-8.86005 -0.5316,-6.73364 -0.5316,-18.60611 -7.97404,-23.74494 -7.44245,-5.13882 -6.20204,-6.91083 -12.22687,-7.26524 -6.02484,-0.3544 -9.21446,0.35441 -11.16367,4.78443 -1.94921,4.43003 -7.08804,6.37924 -5.13883,7.26524 1.94922,0.88601 0.35441,2.48082 -0.7088,3.01242 -1.06321,0.5316 -7.97404,3.18962 -10.27766,10.45486 -2.30361,7.26524 -3.54402,7.61964 -5.49323,7.08804 -1.94921,-0.53161 -4.25282,-1.06321 -6.55644,0.7088 -2.30361,1.77201 -4.60722,3.01242 -8.32844,3.18962 -3.72122,0.1772 -7.26524,-1.77201 -15.59369,1.41761 -8.32845,3.18961 -8.32845,3.36682 -11.51806,3.36682 -3.18962,0 -5.13883,0.5316 -6.37924,4.43002 -1.24041,3.89842 -4.96163,8.15125 -4.07562,10.27766 0.886,2.12641 -0.70881,6.20203 -2.48082,8.32845 -1.77201,2.12641 -6.02483,5.49323 -6.55643,8.32844 -0.53161,2.83522 -5.49324,5.67043 -10.45486,7.26524 -4.96163,1.59481 -7.08804,1.06321 -8.86005,3.01242 -1.77201,1.94921 -2.30362,3.18962 -5.67044,4.25282 -3.36681,1.06321 -2.48081,1.06321 -3.89842,4.43003 -1.41761,3.36682 -2.12641,3.89842 -5.84763,5.31603 -3.72122,1.41761 -2.48081,0.1772 -5.67043,2.48081 -3.18962,2.30362 -7.26524,3.72122 -11.16366,4.96163 -3.89843,1.24041 -6.56535,1.03987 -8.71326,2.56128 -2.04497,1.44849 -3.69081,2.57755 -4.22242,2.22315 z"
       id="path3377"
       style="color:#000000;fill:#9ec7f3;fill-opacity:1;fill-rule:nonzero;stroke:#0000ff;stroke-width:1;stroke-linecap:butt;stroke-linejoin:miter;stroke-miterlimit:4;stroke-opacity:1;stroke-dasharray:none;stroke-dashoffset:0;marker:none;visibility:visible;display:inline;overflow:visible;enable-background:accumulate" />
    <path
       d="m 320.30405,645.47584 c 0,0 9.56885,-2.30361 9.39165,6.73363 -0.13553,6.91178 7.44244,2.65802 12.40407,-0.1772 4.96163,-2.83521 7.97405,-5.49323 19.13771,-2.83521 11.16366,2.65801 9.92325,-0.3544 13.29007,0 3.36682,0.3544 6.02484,0.3544 6.20204,-1.94921 0.1772,-2.30362 -2.12641,-5.31603 1.2404,-8.32845 3.36682,-3.01242 3.89843,-6.91084 -0.1772,-6.91084 -4.07562,0 -7.44244,-2.83521 -10.27765,-2.65801 -2.83522,0.1772 -10.27766,0.7088 -12.04967,2.48081 -1.77201,1.77201 -3.54402,2.12641 -7.97405,0.3544 -4.43002,-1.77201 -5.13883,-2.48081 -11.34086,-2.48081 -6.20204,0 -9.56885,1.24041 -11.69527,1.41761 -2.12641,0.1772 -3.89842,1.4176 -5.67043,5.13883 -1.77201,3.72122 -3.54402,8.68284 -2.48081,9.21445 z"
       id="path3379"
       style="color:#000000;fill:#9ec7f3;fill-opacity:1;fill-rule:nonzero;stroke:#0000ff;stroke-width:1;stroke-linecap:butt;stroke-linejoin:miter;stroke-miterlimit:4;stroke-opacity:1;stroke-dasharray:none;stroke-dashoffset:0;marker:none;visibility:visible;display:inline;overflow:visible;enable-background:accumulate" />
    <path
       d="m 366.91799,769.2136 c 0,0 0.2506,9.7734 0.1253,12.2794 -0.1253,2.506 4.0096,4.7614 3.0072,7.7686 -1.0024,3.00721 -2.506,3.88431 -1.1277,6.76621 1.3783,2.8819 2.1301,5.5132 2.0048,9.3975 -0.1253,3.8843 -0.7518,7.3927 1.6289,6.7662 2.3807,-0.6265 7.0168,-3.0072 7.518,-6.8915 0.5012,-3.8843 -0.2506,-11.4023 0,-13.40711 0.2506,-2.0048 0.2506,-4.2602 4.2602,-6.6409 4.00961,-2.3807 4.51081,-1.1277 5.63851,-4.3855 1.1277,-3.2578 0.5012,-4.6361 4.0096,-4.2602 3.5084,0.3759 9.2722,4.1349 7.8939,7.1421 -1.3783,3.0072 -3.0072,2.8819 -2.2554,5.012 0.7518,2.1301 3.1325,6.26501 -1.8795,9.77341 -5.012,3.5084 -8.6457,4.2602 -9.7734,7.1421 -1.1277,2.8819 -1.0024,4.3855 -2.75661,5.8891 -1.7542,1.5036 -4.7614,3.759 -4.6361,7.8939 0.1253,4.1349 2.6313,7.3927 -2.6313,9.1469 -5.2626,1.7542 -7.2674,7.1421 -12.7806,0.2506 -5.5132,-6.8915 -11.4023,-13.0312 -11.277,-15.7878 0.1253,-2.7566 5.2626,-6.7662 -1.5036,-8.3951 -6.7662,-1.6289 -9.7734,0.7518 -11.6529,-3.0072 -1.87951,-3.759 -4.88671,-0.3759 -7.26741,2.3807 -2.3807,2.7566 -4.7614,6.7662 -6.265,9.2722 -1.5036,2.506 -3.0072,4.1349 -4.1349,4.1349 -1.1277,0 -3.8843,1.8795 -5.2626,3.3831 -1.3783,1.5036 -4.1349,7.8939 -9.7734,7.7686 -5.6385,-0.1253 -3.0072,10.52521 -2.8819,12.53001 0.1253,2.0048 1.6289,6.3903 3.759,8.2698 2.1301,1.8795 6.5156,6.3903 6.3903,10.9011 -0.1253,4.5108 -1.5036,3.6337 -4.2602,1.8795 -2.7566,-1.7542 -7.6433,-3.8843 -8.1445,-8.2698 -0.5012,-4.3855 -5.3879,-13.1565 -11.27701,-15.91311 -5.8891,-2.7566 -5.1373,-13.0312 -5.3879,-15.036 -0.2506,-2.0048 0.5012,-5.1373 -5.2626,-7.0168 -5.7638,-1.8795 -7.518,-6.7662 -7.518,-10.5252 0,-3.759 1.6289,-3.8843 -2.8819,-5.6385 -4.5108,-1.7542 -13.2818,-3.3831 -12.9059,-14.78541 0.3759,-11.4023 1.5036,-6.6409 2.8819,-13.6577 1.3783,-7.0168 6.7662,-5.3879 8.5204,-5.012 1.7542,0.3759 5.6385,4.3855 6.5156,-3.6337 0.8771,-8.0192 -2.1301,-8.2698 -7.1421,-11.5276 -5.012,-3.2578 -4.8867,-11.40231 -3.3831,-13.65771 1.5036,-2.2554 3.759,-4.6361 4.1349,-7.2674 0.3759,-2.6313 3.3831,-1.6289 4.7614,-1.6289 1.3783,0 4.3855,0 3.5084,-5.2626 -0.8771,-5.2626 -0.2506,-5.3879 0.8771,-7.7686 1.1277,-2.3807 0.8771,-11.7782 -0.5012,-14.9107 -1.3783,-3.13251 -0.6265,-6.64091 1.6289,-6.64091 2.2554,0 6.0144,4.8867 5.012,7.39271 -1.0024,2.506 -2.3807,11.1517 -2.8819,12.7806 -0.5012,1.6289 -2.3807,6.7662 0.7518,11.1517 3.1325,4.3855 2.8819,4.0096 4.6361,7.7686 1.7542,3.759 2.506,6.3903 4.8867,6.3903 2.3807,0 3.00721,-3.0072 2.63131,-5.8891 -0.37591,-2.8819 -0.87711,-6.5156 0.6265,-4.0096 1.5036,2.506 3.8843,8.3951 4.1349,10.024 0.2506,1.6289 0.7518,3.6337 3.6337,4.8867 2.8819,1.253 6.3903,1.1277 4.8867,4.38551 -1.5036,3.2578 -2.6313,7.8939 -2.1301,9.6481 0.5012,1.7542 2.3807,5.6385 2.3807,6.7662 0,1.1277 1.6289,5.5132 2.2554,8.3951 0.6265,2.8819 1.253,9.6481 1.6289,13.5324 0.3759,3.8843 0.5012,5.88911 3.6337,8.52041 3.1325,2.6313 8.0192,6.5156 11.5276,2.2554 3.5084,-4.2602 8.6457,-6.01441 11.7782,-6.64091 3.13251,-0.6265 10.14931,-0.8771 13.28181,-0.8771 3.1325,0 8.1445,0.6265 7.7686,-4.5108 -0.3759,-5.1373 -1.5036,-11.7782 2.6313,-12.2794 4.1349,-0.5012 3.759,-9.5228 4.3855,-4.5108 z"
       id="path3381"
       style="color:#000000;fill:#9ec7f3;fill-opacity:1;fill-rule:nonzero;stroke:#0000ff;stroke-width:1;stroke-linecap:butt;stroke-linejoin:miter;stroke-miterlimit:4;stroke-opacity:1;stroke-dasharray:none;stroke-dashoffset:0;marker:none;visibility:visible;display:inline;overflow:visible;enable-background:accumulate" />
    <path
       d="m 391.00725,1121.0833 c 0,0 3.01241,4.2529 5.31603,7.7969 2.30361,3.544 4.60722,1.5948 4.78442,4.6072 0.1772,3.0124 1.59481,5.316 5.67043,3.0124 4.07563,-2.3036 5.84764,-1.0632 8.86005,-0.3544 3.01242,0.7088 6.55644,2.3036 10.10046,-1.772 3.54402,-4.0756 7.08804,-2.8352 7.08804,-6.7336 0,-3.8985 -1.24041,-4.7845 -3.18962,-6.3793 -1.94921,-1.5948 -7.79684,-7.4424 -7.79684,-10.4548 0,-3.0124 1.94921,-4.2528 3.54402,-6.3793 1.59481,-2.1264 4.07562,-5.8476 4.07562,-7.974 0,-2.1264 -2.83521,-3.8984 -5.67043,-4.7844 -2.83522,-0.886 -7.97404,-5.4933 -10.98646,-8.6829 -3.01242,-3.1896 -5.49323,-3.8984 -5.49323,-3.8984 0,0 8.15124,4.0756 12.22687,4.6072 4.07562,0.5316 9.39165,3.0124 13.82167,6.9109 4.43003,3.8984 7.26525,5.4932 7.44245,9.746 0.1772,4.2528 -1.77201,4.43 -1.77201,4.43 0,0 6.02483,4.0757 5.67043,8.3285 -0.3544,4.2528 -1.77201,15.7709 3.89842,18.0745 5.67043,2.3036 7.61964,3.3668 6.73364,5.4932 -0.88601,2.1264 -4.43003,5.6705 -4.07563,9.0373 0.35441,3.3668 -0.886,3.1896 -2.48081,3.0124 -1.59481,-0.1772 -6.02483,-3.8984 -9.21445,-4.0756 -3.18962,-0.1772 -8.15125,4.0756 -10.98646,5.316 -2.83522,1.2404 -5.84764,1.772 -9.03725,1.772 -3.18962,0 -4.43003,-0.7088 -9.74606,-4.6072 -5.31603,-3.8984 -7.44244,-2.3036 -8.86005,-2.658 -1.41761,-0.3544 -4.43002,-1.772 -4.25282,-4.2529 0.1772,-2.4808 -2.48082,-7.2652 -2.30362,-8.6828 0.17721,-1.4176 -3.01241,-10.4549 -3.36681,-10.4549 z"
       id="path3383"
       style="color:#000000;fill:#9ec7f3;fill-opacity:1;fill-rule:nonzero;stroke:#0000ff;stroke-width:1;stroke-linecap:butt;stroke-linejoin:miter;stroke-miterlimit:4;stroke-opacity:1;stroke-dasharray:none;stroke-dashoffset:0;marker:none;visibility:visible;display:inline;overflow:visible;enable-background:accumulate" />
    <path
       d="m 474.29171,-93.275124 c 0,0 4.78443,13.821678 4.60723,16.656894 -0.1772,2.835216 -3.18962,14.707682 -3.18962,18.960506 0,4.252824 1.41761,11.163663 3.54402,13.644477 2.12641,2.480814 -2.65801,1.063206 -2.65801,3.898422 0,2.835216 1.2404,12.935673 0.7088,16.302492 -0.5316,3.366819 -2.65801,6.910839 -3.36682,9.037251 -0.76217,2.286511 -1.59481,-0.531603 -4.60722,-7.08804 -3.01242,-6.556437 -4.78443,-10.277658 -4.96163,-12.049668 -0.1772,-1.77201 -3.54402,-7.619643 -5.49323,-7.619643 -1.94921,0 -7.44244,-1.594809 -7.97405,-4.607226 -0.5316,-3.012417 0.88601,-3.366819 -3.10101,-6.024834 -3.98703,-2.658015 -6.11344,-5.404631 -7.17664,-8.86005 -1.06321,-3.45542 -3.10102,-9.125852 -6.20204,-10.366259 -3.10102,-1.240407 -3.18962,-4.784426 -8.94865,-4.784426 -5.75903,0 -7.97404,1.772009 -10.45486,2.215012 -2.48081,0.443002 -4.87303,2.658015 -5.31603,4.961628 -0.443,2.303613 0.5316,3.278218 -1.94921,4.695826 -2.48081,1.417608 -3.63262,3.012417 -5.49323,4.607226 -1.86061,1.594809 -4.51863,3.278219 -6.99944,4.252824 -2.48081,0.974606 -3.63262,1.329008 -6.29064,2.569415 -2.65801,1.240407 -3.27821,1.86061 -7.44244,0 -4.16422,-1.860611 -6.02483,-1.063206 -8.06264,-6.733638 -2.03781,-5.670432 -2.56942,-4.961628 -2.48082,-8.77145 0.0886,-3.809821 2.65802,-12.49267 6.73364,-14.530481 4.07562,-2.037812 5.22743,-1.417608 7.26524,-3.45542 2.03781,-2.037811 3.27822,-3.455419 6.37924,-3.455419 3.10102,0 6.20203,0.797404 8.94865,-3.278219 2.74661,-4.075618 3.89842,-4.164228 6.91084,-0.974608 3.01241,3.189621 6.64503,4.961631 9.74605,4.961631 3.10102,0 2.56942,-3.366819 6.82224,-3.189618 4.25282,0.177201 6.99944,2.303613 10.89786,2.215012 3.89842,-0.0886 6.20204,-0.443002 7.70825,-3.455419 1.5062,-3.012416 5.05022,-4.252826 10.36625,-4.430026 5.31603,-0.1772 8.32845,-0.443 11.42947,-1.41761 3.10102,-0.974598 7.44244,-2.303608 10.10045,6.113438 z"
       id="path3385"
       style="color:#000000;fill:#9ec7f3;fill-opacity:1;fill-rule:nonzero;stroke:#0000ff;stroke-width:1;stroke-linecap:butt;stroke-linejoin:miter;stroke-miterlimit:4;stroke-opacity:1;stroke-dasharray:none;stroke-dashoffset:0;marker:none;visibility:visible;display:inline;overflow:visible;enable-background:accumulate" />
    <path
       d="m 267.63617,992.27067 c -17.11432,-3.17603 -29.08968,-5.13089 -35.51761,-6.13274 l -0.46875,-365.0625 c 1.08244,1.22991 2.16106,3.0542 3.1875,5.5 2.54278,6.05896 4.57869,15.47776 8.28125,25.9375 4.15193,11.7292 13.49425,17.24497 21.75,19.1875 8.25575,1.94253 16.439,1.07565 17.96875,1.125 3.66309,0.11816 20.54752,-0.11153 37.40625,-0.3125 16.85873,-0.20097 33,-0.40625 33,-0.40625 25.80885,-0.35598 46.95972,0.43434 60.21875,-4.40625 6.28465,-2.29439 10.30795,-5.21853 14.0625,-7.15625 3.75455,-1.93772 7.34217,-3.25 14.40625,-3.25 6.30952,0 11.53574,2.25199 22.78125,7.25 7.9079,3.51462 16.32234,5.45834 21.28125,6.40625 l 0,315.0625 c -4.9686,0.91237 -13.47952,2.95355 -21.5625,7.1875 -5.88158,3.08082 -15.13407,8.54587 -25.5625,13.24997 -10.42843,4.7048 -21.96975,8.5 -31.40625,8.5 -20.81745,0 -46.75428,-3.8443 -99.34375,-14.7187 -12.1536,-2.51313 -23.02879,-4.65916 -32.57061,-6.4742 m 113.50811,-1135.52582 0,24.59375 -73.96875,0 0,-24.21875 -10,0 0,24.21875 -62.4375,0 c -1.69363,-5.7807 -6.23732,-10.35844 -12,-12.09375 l 0,-11.65625 -10,0 0,11.5625 c -5.903,1.66957 -10.56422,6.30247 -12.28125,12.1875 l -18.75,0 0,10 18.75,0 c 1.72692,5.88567 6.41803,10.501408 12.34375,12.156248 l 0.375,299.250002 c -0.0499,-1.3e-4 -0.10662,0 -0.15625,0 l -2.84375,0 0,10 2.84375,0 c 0.0574,0 0.12937,-2.4e-4 0.1875,0 l 0.0312,18.09375 c -0.0889,0.0129 -0.19413,0.0191 -0.28125,0.0312 -3.26613,0.12799 -5.5625,0.3125 -5.5625,0.3125 l 0,9.9375 c 0,0 0.798,-0.0385 0.9375,-0.0312 l 0,0.0312 c 0,0 0.49117,-0.0277 0.53125,-0.0312 0.83166,0.0277 1.90239,0.0235 4.375,-0.25 l 0.3125,242.25 -6.09375,0 0,10 6.09375,0 0.15625,113.96875 -4.3125,0 0,10 4.34375,0 0.28125,216.28125 -9.96875,0 0,10 9.96875,0 0.1875,140.40625 -11.96875,0 0,10 12,0 0.0312,15.25002 -11.5,0 0,10 11.5,0 0.15625,121.7187 c -1.50567,0.3397 -2.93996,0.8474 -4.28125,1.5313 -14.42536,-24.2197 -19.8125,-31.5313 -19.8125,-31.5313 l -8.3125,5.5313 c 0,0 8.37044,12.5937 20.6875,32.9687 -1.65579,2.7627 -2.625,5.9856 -2.625,9.4376 0,8.7726 6.15213,16.0992 14.375,17.9374 l 0.0625,48.6563 10,-0.031 -0.0625,-49.1874 c 1.75751,-0.6051 3.40303,-1.4546 4.875,-2.5313 14.3528,26.0458 22.0625,50.5937 22.0625,50.5937 l 9.53125,-3 c 0,0 -8.70884,-27.8197 -25.09375,-56.375 0.0483,-0.1365 0.11114,-0.2667 0.15625,-0.4062 l 147.03125,0 0,58.1562 10,0 0,-58.1562 85.0625,0 0,59.4062 10,0 0,-59.4062 22.9375,0 0,-10 -22.9375,0 0,-136.2188 c 0.96649,0 3.25,0 3.25,0 l -0.0312,-10 c 0,0 -2.26342,0 -3.21875,0 l 0,-14.24997 5.21875,0 0,-10 -5.21875,0 0,-313.59375 3.8125,0 0,-10 -3.8125,0 0,-118.1875 33.09375,0 0,-10 -33.09375,0 0,-12.875 c 12.74887,0.38986 36,1.90625 36,1.90625 l 0.6563,-9.96905 c 0,0 -23.26209,-1.56258 -36.65625,-1.9375 l 0,-268.90625 2.71875,0 0,-10 -2.71875,0 0,-14.96875 1.78125,-0.0312 -0.125,-10 -1.65625,0.0312 0,-301.312502 c 6.11713,-1.75225 10.9154,-6.547528 12.6875,-12.656248 l 11.65625,0 0,-10 -11.5625,0 c -1.68163,-6.28433 -6.54093,-11.24371 -12.78125,-13.03125 l 0,-10.71875 -10,0 0,10.65625 c -6.35944,1.72585 -11.35939,6.72498 -13.0625,13.09375 l -73.875,0 0,-24.59375 -10,0 z m -146.40625,34.59375 230.375,0 c 1.79567,6.19172 6.73371,11.026658 12.96875,12.718748 l 0,301.343752 -98.1875,1.15625 -0.0312,0 c 0,0 -12.78845,0.0575 -22.65625,3.25 -6.90976,2.23552 -24.43108,5.06743 -35.0625,2.21875 -8.73636,-2.3409 -18.69992,-6.5 -32.34375,-6.5 -13.62691,0 -30.71372,3.6034 -43.59375,1.34375 -9.02275,-1.58294 -16.66993,-2.81139 -23.03125,-3.5 l -0.375,-299.968752 c 5.73762,-1.74947 10.2526,-6.300938 11.9375,-12.062498 l -5e-5,0 z m -11.53125,322.125 c 5.1296,0.59201 11.44367,1.58307 18.625,2.8125 -6.83369,6.10216 -13.26487,9.68482 -18.625,11.8125 l 0,-14.625 z m 254.875,1.9375 0,14.875 -8.8125,0 c -0.26004,-0.0259 -1.9963,-0.26809 -4.25,-2.84375 -1.39619,-1.59565 -5.21195,-6.65439 -9.875,-11.28125 -0.15474,-0.15353 -0.31187,-0.31493 -0.46875,-0.46875 l 23.40625,-0.28125 z m -188.28125,0.125 c 11.60999,0 20.1151,3.57459 29.75,6.15625 14.36904,3.85018 31.91661,0.50401 40.71875,-2.34375 7.28891,-2.35818 19.69601,-2.7794 19.75,-2.78125 l 0.0312,0 49.59375,-0.59375 c -0.0812,0.0342 -0.18549,0.10013 -0.25,0.125 -0.56888,0.21933 -0.56584,0.16331 -0.1875,0.125 0.75669,-0.0766 3.08161,-0.18326 7.8125,0.0625 2.49979,0.12986 7.10486,3.01082 11.09375,6.96875 3.98889,3.95793 7.23566,8.33629 9.375,10.78125 4.64276,5.306 10.71875,6.21875 10.71875,6.21875 l 0.3125,0.0312 0.3125,0 9.25,0 0,268.875 c -6.20776,0.0982 -14.96257,0.30972 -23.40625,0.5 -11.19163,0.25221 -22.45041,0.37393 -24.3125,0.21875 -6.0609,-0.50507 -22.31451,-2.46612 -29.125,-12.28125 -9.0894,-13.09942 -19.91111,-21.08238 -22.53125,-23.375 -4.85362,-4.24693 -10.88754,-4.53195 -16.375,-4.1875 -1.82915,0.11482 -3.60117,0.31067 -5.25,0.4375 -1.62203,0.12477 -2.91385,0.40334 -5.6875,0.90625 -2.77365,0.50291 -6.34127,1.1841 -10.125,1.9375 -7.56746,1.50679 -15.81788,3.26078 -20.5625,4.65625 -7.74317,2.2774 -16.07429,2.59089 -20.96875,2.59375 l -0.0937,0 c -0.15111,-0.003 -29.60567,-0.5383 -36.53125,-1 -7.01457,-0.46764 -23.34589,-0.73333 -39.5625,2.1875 l -0.3125,-240.9062 c 0.95702,0.0436 1.93289,0.11146 2.9375,0.1875 4.6757,0.35388 9.54088,1.12947 13.40625,2.40625 3.86537,1.27678 6.51128,3.05071 7.625,4.78125 3.47064,-5.47533 5.58045,-8.76368 5.58045,-8.76368 -2.8233,-2.61588 -6.39355,-4.29974 -10.08045,-5.51757 -1.98925,-0.65707 -4.07517,-1.08557 -6.15625,-1.5 5.75294,-3.44931 11.89128,-8.12727 18.09375,-14.75 12.92157,0.33939 25.96155,-2.15625 35.15625,-2.15625 z m 72.8125,264.6875 c 4.54976,-0.0317 8.29271,0.47487 9.5,1.53125 3.84172,3.3615 12.82305,9.91318 20.90625,21.5625 10.36209,14.93361 30.43908,16.02618 36.5,16.53125 1.28297,0.10691 3.23904,0.1488 5.46875,0.15625 0.69985,0.69959 1.53192,1.48814 2.625,2.40625 3.0019,2.52139 7.6875,5.91478 14.71875,9.75 10.14163,5.53179 20.31142,8.08515 25.75,9.15625 l 0,117.9375 c -4.53373,-0.96092 -11.18069,-2.66017 -17.21875,-5.34375 -11.25449,-5.00199 -18.15327,-8.09375 -26.84375,-8.09375 -8.48087,0 -14.364,1.98236 -19,4.375 -4.636,2.39264 -7.90965,4.81225 -12.875,6.625 -9.24097,3.37369 -30.96065,3.4542 -56.9375,3.8125 0,0 -16.15337,0.20543 -33,0.40625 -16.84663,0.20082 -35.06487,0.37291 -36.9375,0.3125 -4.00596,-0.12923 -9.8361,0.60658 -16,-0.84375 -6.1639,-1.45033 -11.63407,-4.36313 -14.625,-12.8125 -3.4403,-9.71883 -5.32849,-18.91164 -8.5,-26.46875 -1.58575,-3.77855 -3.5526,-7.26486 -6.59375,-9.9375 -1.65202,-1.45184 -3.64247,-2.56153 -5.84375,-3.28125 l -0.15625,-116.09375 c 15.41582,-2.9825 32.45095,-2.80327 38.875,-2.375 8.20894,0.54726 37.125,1.03125 37.125,1.03125 l 0.0312,0 0.0625,0 c 5.21743,0 14.48414,-0.23798 23.875,-3 3.84168,-1.12991 12.26262,-2.95287 19.71875,-4.4375 3.72806,-0.74231 7.23332,-1.41594 9.9375,-1.90625 2.70418,-0.49031 5.29452,-0.82794 4.6875,-0.78125 1.63417,-0.1257 3.23341,-0.20819 4.75,-0.21875 l 5e-5,0 z m 115.46875,38.9375 0,11.9375 c -5.04699,-1.13798 -13.09261,-3.43972 -20.9375,-7.71875 -2.35432,-1.28417 -4.38841,-2.49901 -6.15625,-3.625 1.38085,-0.0319 2.47488,-0.0615 3.90625,-0.0937 8.37761,-0.18879 17.11264,-0.40041 23.1875,-0.5 l 0,-5e-5 z m -253.84375,475.625 c 3.82032,0.60546 9.42301,1.51153 16.53125,2.75 -2.86469,4.83787 -7.28706,7.49367 -11.75,9.18747 -1.67526,0.6359 -3.28728,1.0754 -4.75,1.4063 l -0.0312,-13.34377 z m 253.84375,0 0,13.25007 c -3.7155,-0.042 -7.74856,-0.1054 -12.125,-0.2188 -5.66029,-0.1465 -11.50606,-0.393 -16.78125,-0.7188 4.93581,-2.6291 9.10717,-4.9847 12,-6.5 5.93282,-3.10764 12.46507,-4.86915 16.90625,-5.81247 z M 346.36835,1131.5159 c 1.4335,2.3374 3.98506,4.8243 8.12521,6.9658 4.89846,2.5337 9.54458,2.3147 13.34375,2.3437 3.79917,0.032 7.08344,0.1588 11.59375,2.2813 5.40868,2.5453 8.37374,8.2564 9.9375,12.6875 l -145.09375,0 c -1.48477,-6.1292 -6.03393,-11.0458 -11.9375,-13.0625 l -0.15625,-122.9063 c 2.40273,-0.4264 5.26576,-1.1367 8.28125,-2.2812 6.66762,-2.5306 14.41447,-7.6321 18.46875,-16.7188 2.11757,0.3846 4.33409,0.7923 6.64897,1.2237 2.50494,0.4667 5.12507,0.9612 7.85966,1.484 9.50868,1.8179 20.40134,3.9788 32.64762,6.5111 52.76767,10.9113 79.33531,14.9062 101.375,14.9062 11.01274,0 22.43297,-3.6922 32.78125,-8.1562 3.51822,0.8376 7.98635,1.2371 13.34375,1.625 6.17705,0.4473 13.27664,0.7002 20.03125,0.875 4.48589,0.1161 8.589,0.177 12.375,0.2188 l 0,136.2812 -86,0 c -1.5514,-6.2412 -5.66219,-16.7061 -16.3125,-21.7188 -6.22256,-2.9275 -11.68892,-3.2159 -15.75,-3.25 -4.06108,-0.033 -6.4186,0.036 -8.84375,-1.2187 -2.01564,-0.8285 -2.77152,-1.7282 -3.86472,-2.6732 m -128.82278,24.6419 c 4.73387,0 8.5625,3.8271 8.5625,8.5626 0,4.7322 -3.82863,8.5624 -8.5625,8.5624 -4.73387,0 -8.5625,-3.8302 -8.5625,-8.5624 0,-4.7355 3.82863,-8.5626 8.5625,-8.5626 z"
       id="path2869"
       style="font-size:medium;font-style:normal;font-variant:normal;font-weight:normal;font-stretch:normal;text-indent:0;text-align:start;text-decoration:none;line-height:normal;letter-spacing:normal;word-spacing:normal;text-transform:none;direction:ltr;block-progression:tb;writing-mode:lr-tb;text-anchor:start;color:#000000;fill:#cccccc;fill-opacity:1;stroke:none;stroke-width:1;marker:none;visibility:visible;display:inline;overflow:visible;enable-background:accumulate;font-family:Andale Mono;-inkscape-font-specification:Andale Mono" />
    <path
       d="m 258.37247,1116.6341 c 0,0 -9.04449,11.113 -12.28516,15.2539 -1.34096,1.7134 -2.47869,2.2348 -3.78125,2.6562 -1.30256,0.4214 -2.92049,0.5732 -4.53125,1.7812 -1.28539,0.9641 -1.59924,2.218 -1.875,3.4688 -0.27576,1.2508 -0.39059,2.5966 -0.4375,3.875 -0.0938,2.5568 0.0937,4.875 0.0937,4.875 l 4,-0.3438 c 0,0 -0.17712,-2.103 -0.0937,-4.375 0.0417,-1.1359 0.15435,-2.2971 0.34375,-3.1562 0.1894,-0.8591 0.59718,-1.3229 0.375,-1.1562 0.51565,-0.3868 1.63389,-0.6031 3.34375,-1.1563 1.70986,-0.5532 3.83884,-1.6378 5.6875,-4 3.13857,-4.0104 12.40625,-15.3828 12.40625,-15.3828 l -3.24609,-2.3398 z"
       id="path3239"
       style="font-size:medium;font-style:normal;font-variant:normal;font-weight:normal;font-stretch:normal;text-indent:0;text-align:start;text-decoration:none;line-height:normal;letter-spacing:normal;word-spacing:normal;text-transform:none;direction:ltr;block-progression:tb;writing-mode:lr-tb;text-anchor:start;color:#000000;fill:#cccccc;fill-opacity:1;stroke:none;stroke-width:4;marker:none;visibility:visible;display:inline;overflow:visible;enable-background:accumulate;font-family:Andale Mono;-inkscape-font-specification:Andale Mono" />
    <path
       d="m 230.58731,713.98168 -0.65625,4.25 c 0,0 10.38671,3.45234 22.52344,14.20202 l 1.27343,-4.16015 c -12.67141,-11.22324 -23.14062,-14.29187 -23.14062,-14.29187 z"
       id="path3235"
       style="font-size:medium;font-style:normal;font-variant:normal;font-weight:normal;font-stretch:normal;text-indent:0;text-align:start;text-decoration:none;line-height:normal;letter-spacing:normal;word-spacing:normal;text-transform:none;direction:ltr;block-progression:tb;writing-mode:lr-tb;text-anchor:start;color:#000000;fill:#cccccc;fill-opacity:1;stroke:none;stroke-width:4;marker:none;visibility:visible;display:inline;overflow:visible;enable-background:accumulate;font-family:Andale Mono;-inkscape-font-specification:Andale Mono" />
    <path
       d="m 486.49356,840.76457 0,-169.81409 0,-0.40625 -0.40625,-0.0937 c -4.93755,-0.94383 -13.33737,-2.88606 -21.1875,-6.375 -11.24711,-4.99872 -16.54026,-7.28125 -22.96875,-7.28125 l 0,-10e-5 c -7.126,0 -10.83685,1.35744 -14.625,3.3125 -3.80736,1.96498 -7.77933,4.85397 -14,7.125 -0.8011,0.29246 -1.74369,0.5937 -2.59375,0.84375 l 0.28125,0.96875 c 0.88132,-0.25925 1.81044,-0.57762 2.625,-0.875 6.34863,-2.31775 10.42326,-5.27704 14.125,-7.1875 3.72095,-1.92038 7.18534,-3.1875 14.1875,-3.1875 6.19055,0 11.31859,2.22145 22.5625,7.21875 7.79664,3.46517 15.98325,5.37032 21,6.34375 l 0,169.42999 m 0,7.91076 0,136.90925 c 0,5.12646 -13.29987,2.97552 -21.28125,7.15625 -5.90595,3.09358 -15.16534,8.52877 -25.5625,13.21877 -6.82063,3.0772 -14.09551,5.7722 -20.9375,7.25 l 0.21875,0.9687 c 6.94261,-1.4995 14.29076,-4.1838 21.15625,-7.2812 10.4597,-4.7182 19.70529,-10.21321 25.5625,-13.28127 8.0137,-4.19766 16.49943,-6.21824 21.4375,-7.125 l 0.40625,-0.0937 0,-0.40625 0,-137.29346 m -172.36277,306.57488 0,1 75.23772,0 0.71875,0 -0.25,-0.6562 c -1.5849,-4.4911 -4.58179,-10.3308 -10.1875,-12.9688 -4.58798,-2.1591 -8.00463,-2.3117 -11.8125,-2.3438 -3.82149,-0.029 -8.35158,0.1878 -13.125,-2.2812 -4.0743,-2.1074 -6.52836,-4.5345 -7.90625,-6.7812 l -0.95234,0.4227 c 1.48911,2.428 4.21509,5.0579 8.42109,7.2335 5.0235,2.5984 9.78565,2.3774 13.5625,2.4062 3.79047,0.032 6.94236,0.1329 11.375,2.2188 4.962,2.3351 7.80949,7.4876 9.40625,11.75 l -74.48772,0 z m -74.56709,-7.2629 c 2.0135,2.1945 3.48588,4.8942 4.21111,7.8879 l 0.0937,0.375 0.40625,0 61.90108,0 0,-1 -61.55733,0 c -0.90574,-3.4105 -2.7333,-6.4323 -5.20364,-8.7896 m -3.7757,-2.7964 c -0.89102,-0.5018 -1.82742,-0.9339 -2.80191,-1.289 l -0.15625,-122.2188 c 2.35306,-0.437 5.06839,-1.0866 7.96875,-2.1874 6.66062,-2.528 14.36366,-7.6285 18.53125,-16.6251 2.0172,0.3669 4.02944,0.7031 6.22411,1.1121 l 0.27589,-0.9558 c -2.31561,-0.4315 -4.53791,-0.834 -6.65625,-1.2188 l -0.375,-0.062 5e-5,-2e-4 -0.1875,0.3438 c -3.98608,8.9338 -11.60818,13.9717 -18.1875,16.4687 -2.98149,1.1316 -5.81155,1.8284 -8.1875,2.25 l -0.40625,0.094 0,0.4062 0.15625,122.9063 0,0.3437 0.34375,0.125 c 1.14769,0.3921 2.24203,0.8973 3.27003,1.5024 m -3.85362,-174.97977 0.0211,16.4146 0,0.4375 0.4375,0.0625 c 6.42351,1.00116 18.39063,2.94989 35.5,6.125 l 0.15625,-0.96875 c -16.90956,-3.13803 -28.606,-5.08039 -35.09375,-6.09375 l -0.0206,-15.9772 m -0.0103,-7.97706 -0.15291,-118.35197 -0.99926,0.13259 0.15171,118.15315 m -0.31207,-243.05475 0.14996,116.79204 0.99935,-6e-5 -0.15028,-116.3076 m -0.006,-4.53126 -0.11836,-91.65903 c -0.002,-1.32106 1.49107,2.10984 2.21875,3.84375 2.50808,5.97628 4.56642,15.41185 8.28125,25.90625 4.21421,11.90513 13.71445,17.55965 22.09375,19.53125 4.17987,0.9835 8.33272,1.24876 11.625,1.28125 3.29228,0.0325 5.79564,-0.17696 6.4375,-0.15625 3.73344,0.12043 20.57933,-0.11154 37.4375,-0.3125 16.85898,-0.20097 33,-0.40625 33,-0.40625 19.83723,-0.27361 36.93097,0.1372 49.875,-1.875 l -0.15625,-1 c -12.79099,1.98842 -29.86004,1.60109 -49.71875,1.875 0,0 -16.14152,0.20528 -33,0.40625 -16.85929,0.20098 -33.78226,0.42839 -37.375,0.3125 -0.88789,-0.0286 -3.25428,0.18829 -6.5,0.15625 -3.24572,-0.032 -7.29912,-0.32222 -11.375,-1.28125 -8.1322,-1.91346 -17.3166,-7.29048 -21.40625,-18.84375 -3.69029,-10.42508 -5.70377,-19.82711 -8.28125,-25.96875 -1.04048,-2.47925 -2.14564,-4.36593 -3.28125,-5.65625 l -0.875,-0.96875 0,-10e-5 0,1.3125 0.11968,93.20604 m 0.71579,-203.50016 -0.023,-16.95578 c 18.12832,-3.30219 32.02476,-2.73377 38.34375,-2.3125 8.26718,0.55114 37.15625,1.03125 37.15625,1.03125 l 0.0312,0 0.0625,0 c 5.23263,0 14.56243,-0.2463 24.03125,-3.03125 3.79159,-1.11518 12.20629,-2.92285 19.65625,-4.40625 3.72601,-0.7419 7.23779,-1.41675 9.9375,-1.90625 1.34434,-0.24375 2.65401,-0.45408 3.5625,-0.59375 0.45425,-0.0698 0.82436,-0.12233 1.03125,-0.15625 0.0274,-0.004 0.0398,-0.0274 0.0625,-0.0312 0.0215,-0.002 0.041,0.002 0.0625,0 0.008,-0.002 0.0247,9.7e-4 0.0312,0 1.58102,-0.11952 3.13252,-0.20858 4.59375,-0.21875 2.25537,-0.0157 4.32107,0.095 5.9375,0.34375 1.61643,0.24874 2.77801,0.67685 3.21875,1.0625 3.89006,3.40379 12.80939,9.88981 20.84375,21.46875 6.2197,8.96369 15.86077,12.99677 23.9375,14.90625 l 0.21875,-0.96875 c -7.94305,-1.87788 -17.32011,-5.81887 -23.34375,-14.5 -8.13204,-11.7197 -17.17537,-18.33704 -20.96875,-21.65625 -0.76655,-0.67073 -2.05569,-1.02053 -3.75,-1.28125 -1.69431,-0.26072 -3.79936,-0.39099 -6.09375,-0.375 l 1e-4,-1e-4 c -1.46231,0.0102 -2.99801,0.102 -4.5625,0.21875 -0.0749,0.006 -0.14377,-0.006 -0.21875,0 l 0.0312,0.5 0.0312,0.5 c -0.0122,-10e-4 -0.0326,0.007 -0.0625,0 -0.0149,-0.003 -0.0627,-0.0313 -0.0625,-0.0312 2.2e-4,8e-5 -0.0939,-0.0626 -0.0937,-0.0625 1.4e-4,9e-5 -0.18755,-0.1876 -0.1875,-0.1875 5e-5,10e-5 4e-5,-0.40636 0,-0.40625 -4e-5,1.1e-4 0.12513,-0.18762 0.125,-0.1875 -1.3e-4,1.2e-4 0.0627,-0.0626 0.0625,-0.0625 -4.3e-4,2.7e-4 0.0783,-0.025 0.0937,-0.0312 -0.0233,0.004 -0.0576,-0.006 -0.0937,0 -0.19258,0.0316 -0.54452,0.0862 -1,0.15625 -0.91097,0.14005 -2.23391,0.34719 -3.59375,0.59375 -2.70865,0.49112 -6.20739,1.16353 -9.9375,1.90625 -7.4623,1.48586 -15.88948,3.32411 -19.78125,4.46875 -9.3129,2.73909 -18.51652,2.96875 -23.71875,2.96875 l -0.0625,0 -0.0312,0 c 0,0 -28.94305,-0.48787 -37.09375,-1.03125 -6.47335,-0.43156 -23.51307,-0.62126 -39,2.375 l -0.40625,0.0937 0,0.40625 0.0233,17.29978 m 0.0113,8.37486 0.12169,90.41911 0,0.375 0.34375,0.0937 c 2.14161,0.70021 4.05892,1.78373 5.65625,3.1875 2.95949,2.60088 4.89762,6.00629 6.46875,9.75 3.14292,7.48899 5.04581,16.67943 8.5,26.4375 3.04286,8.59607 8.72376,11.68684 14.96875,13.15625 6.26903,1.47507 12.16455,0.717 16.09375,0.84375 1.00383,0.0324 5.97975,-0.002 12.875,-0.0625 6.89525,-0.0606 15.66999,-0.14958 24.09375,-0.25 16.84688,-0.20082 33,-0.40625 33,-0.40625 20.6729,-0.28514 38.66089,-0.37927 49.875,-2.125 l -0.15625,-1 c -11.05879,1.72155 -29.04137,1.8398 -49.71875,2.125 0,0 -16.15362,0.20543 -33,0.40625 -8.42287,0.1004 -17.20007,0.18943 -24.09375,0.25 -6.89368,0.0606 -11.9437,0.0905 -12.8125,0.0625 -4.08272,-0.13171 -9.84748,0.58184 -15.90625,-0.84375 -6.08281,-1.43125 -11.34225,-4.16608 -14.28125,-12.46875 -3.42641,-9.67959 -5.2999,-18.87477 -8.5,-26.5 -1.60037,-3.81339 -3.59594,-7.3806 -6.71875,-10.125 -1.61499,-1.4193 -3.56981,-2.47843 -5.6875,-3.21875 l -0.12185,-89.95031 m -1.48798,-379.46865 0.0786,65.10646 0,0.4375 0.4375,0.0625 c 6.34069,0.68638 13.98124,1.91776 23,3.5 5.14986,0.90349 10.93195,0.88547 16.875,0.53125 l -0.0625,-1 c -5.90719,0.35208 -11.60404,0.34962 -16.625,-0.53125 -8.85573,-1.55364 -16.31659,-2.73976 -22.625,-3.4375 l -0.0811,-64.66907 m -0.01,-7.99999 -0.28393,-226.549692 c 5.59457,-1.83502 9.96893,-6.259308 11.75,-11.874998 l 56.40625,0 0,-1 -56.0625,0 -0.65625,0 0,5e-5 0,0.5 -0.46875,-0.125 c -1.63727,5.59869 -6.0488,10.018498 -11.625,11.718748 l -0.34375,0.0937 0,0.375 0.28665,226.768522 m 158.0571,-273.42472 0,24.09375 -72.96875,0 0,-23.71875 -1,0 0,24.21875 0,0.5 0.5,0 73.96875,0 0.5,0 0,-0.5 0,-24.59375 -1,0 z m 10,0 0,24.59375 0,0.5 0.5,0 73.875,0 0.375,0 0.0937,-0.375 c 1.65689,-6.19592 6.53092,-11.07072 12.71875,-12.75 l 0.375,-0.0937 0,-0.375 0,-10.65625 -1,0 0,10.34375 c -6.21065,1.8306 -11.06562,6.68589 -12.875,12.90625 l -73.0625,0 0,-24.09375 -1,0 5e-5,-5e-5 z m -93.96875,0.375 0,23.71875 -61.625,0 c -1.78992,-5.63575 -6.19156,-10.08305 -11.8125,-11.90625 l 0,-11.34375 -1,0 0,11.65625 0,0.375 0.34375,0.0937 c 5.5997,1.68623 10.04169,6.13251 11.6875,11.75 l 0.0937,0.375 0.375,0 62.4375,0 0.5,0 0,-0.5 0,-24.21875 -1,0 5e-5,5e-5 z m -84.4375,0.46875 0,11.25 c -5.75066,1.76823 -10.28012,6.26769 -12.09375,12 l -18.4375,0 0,1 18.75,0 0.375,0 0.0937,-0.375 c 1.66865,-5.7192 6.20126,-10.22135 11.9375,-11.84375 l 0.375,-0.0937 0,-0.375 0,-11.5625 -1,0 5e-5,-5e-5 z m 275.34375,0 0,10.71875 0,0.375 0.375,0.0937 c 6.07102,1.73904 10.80106,6.57206 12.4375,12.6875 l 0.0937,0.375 0.375,0 11.5625,0 0,-1 -11.25,0 c -1.78378,-6.13291 -6.50504,-10.9554 -12.59375,-12.84375 l 0,-10.40625 -1,0 5e-5,5e-5 z m -305.875,33.25 0,1 18.4375,0 c 1.81913,5.74656 6.37409,10.213258 12.15625,11.968748 l 0.375,298.437502 -2.5,0 0,1 2.84375,0 c 0.0505,0 0.10821,-1.3e-4 0.15625,0 l 0.5,0 0,-0.5 -0.375,-299.250002 0,-0.375 -0.375,-0.0937 c -5.75958,-1.60844 -10.32207,-6.125038 -12,-11.843748 l -0.0937,-0.34375 -0.375,0 -18.75,0 -5e-5,-5e-5 z m 123.1875,0 0,1 74.9375,0 0,-1 -74.9375,0 z m 84.15625,0 0,1 75.75,0 c 1.89555,6.04055 6.69728,10.738238 12.78125,12.531248 l 0,300.531252 -59.25,0.71875 0,1 59.75,-0.71875 0.5,0 0,-0.5 0,-301.343752 0,-0.375 -0.375,-0.0937 c -6.06709,-1.64651 -10.87824,-6.351918 -12.625,-12.374998 l -0.0937,-0.375 -0.375,0 -76.0625,0 -5e-5,-5e-5 z m 111.34375,0 -0.0937,0.375 c -1.72432,5.94402 -6.39223,10.607688 -12.34375,12.312498 l -0.375,0.0937 0,0.375 0,301.312502 0,0.5 0.5,0 1.65625,-0.0312 0,-1 -1.15625,0.0312 0,-300.500002 c 5.96317,-1.84914 10.63221,-6.514258 12.5,-12.468748 l 11.34375,0 0,-1 -11.65625,0 -0.375,0 -5e-5,5e-5 z m -210.59375,314.1875 c -5.87459,0 -12.34419,0.6721 -18.84375,1.25 l 0.0625,1 c 6.50824,-0.57868 12.98218,-1.25 18.78125,-1.25 13.54222,0 23.43118,4.11413 32.21875,6.46875 10.8441,2.90567 28.31612,0.0549 35.34375,-2.21875 9.7491,-3.1541 22.5,-3.21875 22.5,-3.21875 l 0.0312,0 29.71875,-0.34375 0,-1 -29.71875,0.34375 -0.0312,0 c 0,0 -12.826,0.0504 -22.8125,3.28125 -6.79189,2.19739 -24.36251,5.01044 -34.78125,2.21875 -8.68515,-2.32718 -18.72331,-6.53125 -32.46875,-6.53125 z m -79.625,7.21875 0,1 2.53125,0 0.0312,17.125 c -3.10127,0.12749 -5.37495,0.3125 -5.37495,0.3125 l 0.0625,1 c 0,0 2.30599,-0.18489 5.5625,-0.3125 l 0.0312,0 c 0.0558,-0.008 0.15939,-0.0136 0.28125,-0.0312 l 0.4375,-0.0625 0,-0.4375 -0.0312,-18.09375 0,-0.5 -0.5,0 c -0.0612,-2.5e-4 -0.13149,0 -0.1875,0 l -2.84375,0 0,-5e-5 z m 12.53125,0.65625 0,0.5625 0,14.625 0,0.75 0.6875,-0.28125 c 5.41155,-2.14809 11.90383,-5.76504 18.78125,-11.90625 l 0.75,-0.6875 -1,-0.1875 c -7.18533,-1.23011 -13.50994,-2.21856 -18.65625,-2.8125 l -0.5625,-0.0625 z m 1,1.15625 c 4.71469,0.55846 10.47659,1.472 16.90625,2.5625 -6.18997,5.35801 -11.96336,8.61849 -16.90625,10.65625 l 0,-13.21875 z m 266.15625,0.71875 -1.78125,0.0312 -0.5,0 0,0.5 0,14.96875 0,0.5 0.5,0 2.71875,0 0,-1 -2.21875,0 0,-13.96875 1.28125,-0.0312 0,-1 z m -11.78125,0.125 -23.40625,0.28125 -1.21875,0 0.875,0.84375 c 0.15121,0.14826 0.30977,0.31102 0.46875,0.46875 4.63051,4.59457 8.39999,9.63123 9.84375,11.28125 2.32728,2.65975 4.21499,2.96539 4.5625,3 l 0.0312,0 0.0312,0 8.8125,0 0.5,0 0,-0.5 0,-14.875 0,-0.5 -0.5,0 10e-5,0 z m -188.28125,0.125 c -5.46879,0 -12.20747,0.85875 -19.46875,1.5 l 0.0625,1 c 7.28572,-0.64341 14.04404,-1.5 19.40625,-1.5 11.50736,0 19.9497,3.53252 29.625,6.125 14.5373,3.89526 32.12183,0.52861 41,-2.34375 3.5737,-1.1562 8.46582,-1.85136 12.46875,-2.25 3.98554,-0.39691 7.05977,-0.49777 7.125,-0.5 l 0.0312,0 c 11.33504,-0.10743 23.91712,-0.35505 35.4375,-0.40625 l 0,-1 c -11.53156,0.0512 -24.11012,0.2989 -35.4375,0.40625 l -0.0312,0 -0.0312,0 c -0.0149,5.1e-4 -3.15116,0.098 -7.1875,0.5 -4.03634,0.40197 -8.97229,1.11052 -12.6875,2.3125 -8.72611,2.82316 -26.23672,6.14885 -40.4375,2.34375 -9.5945,-2.57084 -18.16238,-6.1875 -29.875,-6.1875 l -5e-5,0 z m 137,0.65625 0,1 c 0.81192,0.009 1.61671,0.018 2.40625,0.0312 l 0.0312,0 0.0312,0 c 0.70086,-0.071 3.00382,-0.18243 7.71875,0.0625 1.07448,0.0558 2.82499,0.76097 4.75,1.96875 1.92501,1.20778 4.06204,2.88982 6.03125,4.84375 3.95431,3.92362 7.1747,8.30234 9.34375,10.78125 4.76641,5.44731 11.03125,6.375 11.03125,6.375 l 0.3125,0.0312 0.0312,0 0.0312,0 0.3125,0 8.75,0 0,267.875 c -6.18406,0.10084 -14.64341,0.3138 -22.90625,0.5 -3.81322,0.086 -8.07616,0.16891 -11.53125,0.21875 l 0.0312,1 c 3.45695,-0.0499 7.68246,-0.1327 11.5,-0.21875 8.44424,-0.19029 17.20241,-0.40186 23.40625,-0.5 l 0.5,0 0,-0.5 0,-268.875 0,-0.5 -0.5,0 -9.25,0 -0.25,0 -0.0625,0 -0.25,-0.0312 c 0,0 -5.88714,-0.89781 -10.40625,-6.0625 -2.10963,-2.41101 -5.38278,-6.78901 -9.40625,-10.78125 -2.01968,-2.004 -4.1878,-3.74535 -6.1875,-5 -1.9997,-1.25465 -3.79344,-2.05096 -5.21875,-2.125 -4.70933,-0.24464 -7.0138,-0.14442 -7.84375,-0.0625 -0.0205,-3.5e-4 -0.0419,3.4e-4 -0.0625,0 -0.77098,-0.0129 -1.5505,-0.0225 -2.34375,-0.0312 l 2.5e-4,0 z m 50.78125,0.21875 0,13.875 -8.25,0 c -0.004,-4e-4 -0.057,5.8e-4 -0.0625,0 -0.23121,-0.0247 -1.74519,-0.25342 -3.875,-2.6875 -1.31143,-1.49878 -5.04271,-6.35456 -9.5625,-10.90625 l 21.75,-0.28125 z m -215.28125,1.1875 c -2.53595,0.11418 -5.10377,0.16077 -7.65625,0.0937 l -0.21875,0 -0.15625,0.15625 c -6.17026,6.58834 -12.25227,11.2288 -17.96875,14.65625 l -1.125,0.6875 1.28125,0.25 c 2.0791,0.41404 4.14187,0.82402 6.09375,1.46875 3.6581,1.20831 7.15511,2.87957 9.90625,5.4375 l 0.6875,-0.71875 c -2.90292,-2.69905 -6.54481,-4.42206 -10.28125,-5.65625 -1.65968,-0.54821 -3.38386,-0.89943 -5.09375,-1.25 5.4661,-3.38103 11.24934,-7.82161 17.09375,-14.03125 2.50845,0.0597 5.0178,0.018 7.5,-0.0937 l -0.0625,-1 z m 225.28125,22.6875 0,0.5 0,268.90625 0,0.5 0.5,0 c 13.3715,0.37429 36.625,1.9375 36.625,1.9375 l 0.0625,-1 c 0,0 -22.69495,-1.50438 -36.1875,-1.90625 l 0,-267.9375 2.21875,0 0,-1 -2.71875,0 -0.5,0 z m -273.84375,0.5 -0.5625,0.0625 c -2.45749,0.27183 -3.46554,0.27717 -4.28125,0.25 l -0.0312,0 -0.0312,0 c 0.0284,-0.002 -0.0985,0.0257 -0.1875,0.0312 l -0.28125,-0.0312 c -0.16525,-0.009 -0.34309,-0.009 -0.5625,0 -0.21941,0.009 -0.4375,0.0312 -0.4375,0.0312 l 0.0625,1 c 0,0 0.19178,-0.0226 0.40625,-0.0312 l 0,0.0625 0.53125,-0.0312 c 0,0 0.12181,0.007 0.25,0 0.10005,-0.006 0.15205,-0.0266 0.21875,-0.0312 0.0118,3.9e-4 0.0506,-3.8e-4 0.0625,0 0.73561,0.0234 1.98674,-0.0372 3.84375,-0.21875 l 0.3125,241.21875 -5.59375,0 0,1 6.09375,0 0.5,0 0,-0.5 -0.3125,-242.25 0,-0.5625 -1e-4,-1e-4 z m 9,0.0312 0,0.53125 0.3125,240.90625 0,0.59375 0.59375,-0.0937 c 16.15377,-2.90951 32.46178,-2.65255 39.4375,-2.1875 3.49694,0.23313 12.56275,0.4643 20.8125,0.65625 8.24975,0.19195 15.72897,0.34333 15.75,0.34375 l 0.0937,0 c 4.91548,-0.003 13.30061,-0.32371 21.125,-2.625 4.7029,-1.3832 12.93716,-3.11913 20.5,-4.625 3.78131,-0.75292 7.35528,-1.4353 10.125,-1.9375 2.77873,-0.50383 4.03947,-0.78429 5.625,-0.90625 1.66076,-0.12775 3.43618,-0.32364 5.25,-0.4375 5.44738,-0.34193 11.29259,-0.0565 16,4.0625 1.35036,1.18156 4.69289,3.72242 8.84375,7.625 4.15086,3.90258 9.10616,9.14381 13.625,15.65625 6.03727,8.70077 19.15498,11.29386 26.53125,12.1875 l 0.125,-0.96875 c -7.28113,-0.88212 -20.14464,-3.56782 -25.84375,-11.78125 -4.57056,-6.58698 -9.56262,-11.87559 -13.75,-15.8125 -4.18738,-3.93691 -7.57397,-6.54519 -8.84375,-7.65625 -4.99983,-4.37486 -11.22246,-4.65947 -16.75,-4.3125 -1.84448,0.11578 -3.6131,0.31159 -5.25,0.4375 -1.65853,0.12758 -2.98143,0.40426 -5.75,0.90625 -2.77758,0.50362 -6.33885,1.18362 -10.125,1.9375 -7.57208,1.50771 -15.83866,3.27976 -20.625,4.6875 -7.66195,2.25351 -15.93906,2.55965 -20.8125,2.5625 l -0.0937,0 c -0.13008,-0.003 -7.47204,-0.12062 -15.71875,-0.3125 -8.24671,-0.19188 -17.35261,-0.45893 -20.78125,-0.6875 -6.96658,-0.46444 -23.01438,-0.72493 -39.09375,2.09375 l -0.3125,-239.78125 c 0.78414,0.0422 1.58489,0.0941 2.40625,0.15625 4.64691,0.3517 9.47726,1.1185 13.28125,2.375 3.79893,1.25483 6.37216,3.0355 7.375,4.59375 l 0.8125,-0.5625 c -1.2246,-1.90283 -3.94319,-3.67002 -7.875,-4.96875 -3.92675,-1.29706 -8.82676,-2.08144 -13.53125,-2.4375 -1.00659,-0.0762 -1.97235,-0.14353 -2.9375,-0.1875 l -0.53125,-0.0312 0,-5e-5 0,-5e-5 z m -15.28125,252.28125 0,1 5.59375,0 0.15625,112.96875 -3.8125,0 0,1 4.3125,0 0.5,0 0,-0.5 -0.15625,-113.96875 0,-0.5 -0.5,0 -6.09375,0 z m 270.625,26.0625 c -6.07861,0.0996 -14.81048,0.31122 -23.1875,0.5 -1.43253,0.0322 -2.52644,0.0619 -3.90625,0.0937 l -1.65625,0.0312 1.375,0.875 c 1.77697,1.13181 3.82309,2.36658 6.1875,3.65625 7.90488,4.31175 15.98561,6.63653 21.0625,7.78125 l 0.625,0.125 0,-0.625 0,-11.4375 0,-0.5 -0.5,0 0,-0.5 0,10e-5 z m 9.5,0.0312 0,0.5 0,12.875 0,0.5 0.5,0 33.09375,0 0,-1 -32.59375,0 0,-11.84375 c 12.83313,0.41421 35.46875,1.875 35.46875,1.875 l 0.0625,-1 c 0,0 -23.26135,-1.51575 -36.03125,-1.90625 l -0.5,0 z m -60.875,0.40625 -0.0937,1 c 1.14379,0.1066 2.12679,0.18765 2.875,0.25 1.26935,0.10577 3.17218,0.14679 5.3125,0.15625 0.68005,0.67444 1.46233,1.40968 2.5,2.28125 3.02893,2.54409 7.72313,5.96263 14.78125,9.8125 10.02431,5.4678 19.96178,8.01401 25.5,9.125 l 0,116.875 c -4.49306,-0.97428 -10.76885,-2.59519 -16.53125,-5.15625 -11.25391,-5.00173 -18.22218,-8.125 -27.03125,-8.125 -8.55878,0 -14.52957,2.01742 -19.21875,4.4375 -4.41238,2.27723 -7.57375,4.53185 -12.03125,6.28125 l 0.375,0.9375 c 4.58148,-1.79806 7.75093,-4.10242 12.09375,-6.34375 4.58282,-2.3652 10.37829,-4.3125 18.78125,-4.3125 8.57189,0 15.40118,3.06025 26.65625,8.0625 6.09093,2.70708 12.75878,4.40984 17.3125,5.375 l 0.59375,0.125 0,-0.625 0,-117.9375 0,-0.40625 -0.40625,-0.0937 c -5.40671,-1.06482 -15.5187,-3.59827 -25.59375,-9.09375 -7.00438,-3.82057 -11.68138,-7.18881 -14.65625,-9.6875 -1.0808,-0.9078 -1.90118,-1.68269 -2.59375,-2.375 l -0.125,-0.15625 -0.21875,0 c -2.22442,-0.007 -4.18567,-0.0519 -5.4375,-0.15625 -0.75605,-0.063 -1.71064,-0.1444 -2.84375,-0.25 l -5e-5,-5e-5 z m 50.875,0.5625 0,10.75 c -5.03908,-1.16937 -12.66323,-3.36461 -20.1875,-7.46875 -1.77988,-0.97084 -3.2215,-1.83664 -4.65625,-2.71875 0.6896,-0.017 1.36668,-0.0447 2.15625,-0.0625 8.19762,-0.18473 16.63626,-0.39795 22.6875,-0.5 z m 10,21.90625 0,0.5 0,118.1875 0,0.5 0.5,0 3.8125,0 0,-1 -3.3125,0 0,-117.1875 32.59375,0 0,-1 -33.09375,0 -0.5,0 z m -278.1875,75 0,1 3.84375,0 0.28125,215.28125 -9.46875,0 0,1 9.96875,0 0.5,0 0,-0.5 -0.28125,-216.28115 0,-0.5 -0.5,0 -4.34375,0 0,-10e-5 z m 278.1875,53.1876 0,0.5 0,313.59375 0,0.5 0.5,0 5.21875,0 0,-1 -4.71875,0 0,-312.59375 3.3125,0 0,-1 -3.8125,0 -0.5,0 z m -283.53125,173.09375 0,1 9.46875,0 0.1875,139.40625 -11.46875,0 0,1 11.96875,0 0.5,0 0,-0.5 -0.1875,-140.40625 0,-0.5 -0.5,0 -9.96875,0 z m 63.59919,148.9375 -0.0991,1 c 9.53926,1.81455 20.41155,3.95619 32.5625,6.46877 21.36235,4.4173 38.32469,7.6562 52.34375,9.9687 l 0.20312,-0.9531 c -13.99808,-2.3091 -31.00436,-5.5999 -52.35937,-10.01562 -12.15625,-2.51366 -23.10651,-4.65322 -32.65089,-6.46875 z m -65.41169,1.46875 0,1 11.5,0 0.0312,14.25002 -11,0 0,1 11.5,0 0.5,0 0,-0.5 -0.0312,-15.25002 0,-0.5 -0.5,0 -12,0 z m 285.34375,0.0937 0,0.5 0,14.25002 0,0.5 0.5,0 3.21875,0 0,-1 -2.71875,0 0,-13.25002 4.71875,0 0,-1 -5.21875,0 -0.5,0 z m -9,0.8125 -0.59375,0.125 c -4.46746,0.9489 -11.03359,2.73337 -17.03125,5.87502 -2.90649,1.5224 -7.10165,3.8742 -12.03125,6.5 l -1.53125,0.8125 1.75,0.125 c 5.28239,0.3262 11.14661,0.5721 16.8125,0.7188 4.37957,0.1135 8.4079,0.1766 12.125,0.2187 l 0.5,0 0,-0.5 0,-13.25002 0,-0.625 z m -254.84375,0.0313 0,0.59375 0.0312,13.34377 0,0.625 0.625,-0.125 c 1.47854,-0.3345 3.10921,-0.791 4.8125,-1.4375 4.52259,-1.7164 9.06124,-4.4433 12,-9.40627 l 0.375,-0.625 -0.71875,-0.125 c -7.11138,-1.23902 -12.70941,-2.1443 -16.53125,-2.75 l -0.5937,-0.0937 z m 1,1.1875 c 3.6111,0.57358 8.75899,1.42821 15.125,2.53125 -2.7915,4.28117 -6.84672,6.75557 -11.03125,8.34377 -1.4272,0.5417 -2.77732,0.878 -4.0625,1.1875 l -0.0312,-12.06252 z m 252.84375,0.0625 0,12.09382 c -3.58587,-0.042 -7.43197,-0.1102 -11.625,-0.2188 -5.04302,-0.1305 -10.13677,-0.3816 -14.9375,-0.6562 4.09685,-2.2087 7.88018,-4.3183 10.375,-5.6251 5.64588,-2.95734 11.79191,-4.63127 16.1875,-5.59372 z m -211.96875,6.12502 -0.1875,0.9687 c 9.50608,1.8175 20.41231,3.9995 32.65625,6.5313 21.61721,4.4701 38.83381,7.7739 53.15625,10.125 l 0.15625,-1 c -14.30084,-2.3475 -31.51507,-5.6565 -53.125,-10.125 -12.24862,-2.5328 -23.14497,-4.6816 -32.65625,-6.5 z m 94.98438,7.9219 -0.15625,1 c 16.27598,2.4514 28.40746,3.4843 39.10937,3.4843 2.12877,0 4.3638,-0.1844 6.65625,-0.5312 l -0.15625,-1 c -2.25117,0.3406 -4.43087,0.5312 -6.5,0.5312 -10.63881,0 -22.70884,-1.0377 -38.95312,-3.4843 z m 71.70312,5.2969 -0.15625,0.062 c -6.66551,2.8754 -13.77391,5.4327 -20.90625,6.875 l 0.1875,0.9688 c 7.17534,-1.451 14.27623,-3.9781 20.9375,-6.8438 3.55305,0.8289 7.98869,1.2106 13.28125,1.5938 6.19104,0.4483 13.30448,0.7001 20.0625,0.875 4.30792,0.1115 8.21582,0.1771 11.875,0.2188 l 0,135.2812 -85.125,0 c -1.63272,-6.3498 -5.81033,-16.6397 -16.46875,-21.6562 -6.31318,-2.9702 -11.88777,-3.2783 -15.96875,-3.3126 -4.06832,-0.033 -6.32395,0.034 -8.625,-1.1562 l 0,-0.031 -0.0312,0 c -1.93857,-0.7969 -2.55988,-1.5765 -3.6856,-2.5496 l -0.88832,0.5715 c 1.05243,0.9098 2.11032,2.0292 4.16762,2.8845 0.0161,0.01 0.015,0.025 0.0312,0.031 l 0,-0.031 c 2.53938,1.304 4.99218,1.2484 9.03125,1.2812 4.04118,0.034 9.39931,0.3027 15.53125,3.1876 10.45256,4.9196 14.49817,15.2387 16.03125,21.4062 l 0.0937,0.375 0.40625,0 86,0 0.5,0 0,-0.5 0,-136.2812 0,-0.5 -0.5,0 c -3.78463,-0.042 -7.89247,-0.1028 -12.375,-0.2188 -6.7512,-0.1747 -13.83694,-0.4287 -20,-0.875 -5.35271,-0.3876 -9.78972,-0.8012 -13.25,-1.625 l -0.15625,-0.031 10e-5,-2e-4 z m 55.28125,2.8124 0,0.5 0,136.2188 0,0.5 0.5,0 22.9375,0 0,-1 -22.4375,0 0,-135.2188 2.75,0 0,-1 -3.25,0 -0.5,0 z m -284.8125,0.9063 0,1 11,0 0.15625,120.8437 c -1.2488,0.308 -2.42178,0.7682 -3.5625,1.3126 -14.20543,-23.8266 -19.625,-31.2188 -19.625,-31.2188 l -0.8125,0.5625 c 0,0 5.36126,7.2893 19.78125,31.5 l 0.25,0.4063 0.40625,-0.2188 c 1.302,-0.6639 2.71966,-1.1376 4.1875,-1.4688 l 0.375,-0.094 0,-0.4063 -0.15625,-121.7187 0,-0.5 -0.5,0 -11.5,0 0,3e-4 z m 156.4375,0.9375 -0.15625,0.9688 c 16.63007,2.4992 29.1633,3.5624 40.5,3.5624 2.55502,0 5.33977,-0.2387 7.90625,-0.5937 l -0.125,-1 c -2.52994,0.35 -5.28983,0.5937 -7.78125,0.5937 -11.27472,0 -23.74576,-1.0368 -40.34375,-3.5312 z m -176.78125,96.5312 -0.8125,0.5626 c 0,0 8.30856,12.5108 20.53125,32.7187 -1.60459,2.7766 -2.5625,5.9705 -2.5625,9.4063 0,8.8573 6.13798,16.2729 14.375,18.3124 l 0.0625,48.2813 1,0 -0.0625,-48.6563 0,-0.4062 -0.40625,-0.094 c -7.99864,-1.788 -13.96875,-8.8986 -13.96875,-17.4374 0,-3.3585 0.95063,-6.4981 2.5625,-9.1876 l 0.15625,-0.25 -0.15625,-0.25 c -12.32175,-20.3827 -20.71875,-33 -20.71875,-33 l 0,2e-4 z m 36.0625,33.625 c -5.00335,0 -9.0625,4.0576 -9.0625,9.0626 0,5.0018 4.05893,9.0624 9.0625,9.0624 5.00357,0 9.0625,-4.0606 9.0625,-9.0624 0,-5.005 -4.05915,-9.0626 -9.0625,-9.0626 z m 0,1 c 4.46439,0 8.0625,3.5965 8.0625,8.0626 0,4.4625 -3.59833,8.0624 -8.0625,8.0624 -4.46417,0 -8.0625,-3.5999 -8.0625,-8.0624 0,-4.4661 3.59811,-8.0626 8.0625,-8.0626 z m 17.125,13.2188 -0.0937,0.3438 c -0.0313,0.097 -0.0958,0.2354 -0.15625,0.4062 l -0.0937,0.2188 0.125,0.1874 c 16.35321,28.5001 25.0625,56.2813 25.0625,56.2813 l 0.9375,-0.3125 c 0,0 -8.64907,-27.6364 -24.9375,-56.125 l 146.0625,0 0,57.6562 1,0 0,-58.1562 0,-0.5 -0.5,0 -147.03125,0 -0.375,0 -1e-4,0 z m 156.90625,0 0,0.5 0,58.1562 1,0 0,-57.6562 84.0625,0 0,58.9062 1,0 0,-59.4062 0,-0.5 -0.5,0 -85.0625,0 -0.5,0 z m 95.0625,0 0,0.5 0,59.4062 1,0 0,-58.9062 22.4375,0 0,-1 -22.9375,0 -0.5,0 z m -258.09375,8.9375 -0.4375,0.3437 c -1.4298,1.0459 -3.03786,1.8793 -4.75,2.4688 l -0.34375,0.125 0,0.3438 0.0625,49.1874 1,0 -0.0625,-48.9062 c 1.48542,-0.545 2.86904,-1.2745 4.15625,-2.1562 14.17481,25.8367 21.8125,50.0937 21.8125,50.0937 l 0.9375,-0.3125 c 0,0 -7.71339,-24.5917 -22.09375,-50.6875 l -0.28125,-0.5 z"
       id="path3569"
       style="font-size:medium;font-style:normal;font-variant:normal;font-weight:normal;font-stretch:normal;text-indent:0;text-align:start;text-decoration:none;line-height:normal;letter-spacing:normal;word-spacing:normal;text-transform:none;direction:ltr;block-progression:tb;writing-mode:lr-tb;text-anchor:start;color:#000000;fill:#000000;fill-opacity:1;stroke:none;stroke-width:1;marker:none;visibility:visible;display:inline;overflow:visible;enable-background:accumulate;font-family:Andale Mono;-inkscape-font-specification:Andale Mono" />
    <path
       d="m 414.81613,1001.7809 c -1.4839,6.4423 -1.64177,13.4654 1.52118,27.4195 6.0689,26.7746 12.37113,35.4473 18.71875,44.9688 6.88495,10.3274 20.73153,16.3504 27.71875,20.7812 2.94588,1.8682 5.2264,6.0022 6.46875,11.6876 1.24235,5.6853 1.45927,12.8065 0.59375,20.25 -1.80258,15.5022 -0.375,29.8437 -0.375,29.8437 l 3.79197,1.1847 c 0,0 -1.18966,-15.6146 0.55178,-30.591 0.90649,-7.7958 0.74636,-15.2867 -0.625,-21.5624 -1.37136,-6.2758 -3.96189,-11.4485 -8.28125,-14.1876 -7.54328,-4.7835 -20.62647,-10.8147 -26.5,-19.625 -6.41084,-9.6163 -12.17547,-17.2391 -18.15625,-43.625 -3.04451,-13.4316 -2.73199,-20.6511 -1.38859,-26.4835 l -4.03884,-0.061 0,0 z"
       id="path3241"
       style="font-size:medium;font-style:normal;font-variant:normal;font-weight:normal;font-stretch:normal;text-indent:0;text-align:start;text-decoration:none;line-height:normal;letter-spacing:normal;word-spacing:normal;text-transform:none;direction:ltr;block-progression:tb;writing-mode:lr-tb;text-anchor:start;color:#000000;fill:#cccccc;fill-opacity:1;stroke:none;stroke-width:4;marker:none;visibility:visible;display:inline;overflow:visible;enable-background:accumulate;font-family:Andale Mono;-inkscape-font-specification:Andale Mono" />
    <path
       d="m 246.69918,-50.591839 c 0,0 -0.72002,0.568091 -3.92437,4.886017 -3.20435,4.317926 -6.65109,9.704195 -7.375,14.875 -0.60969,4.354911 -1.35871,7.736433 -2.5,10 -1.14129,2.263567 -2.47719,3.462528 -4.90625,4.125 l 1.03125,3.875 c 3.41857,-0.932337 5.92078,-3.210588 7.4375,-6.21875 1.51672,-3.008162 2.27553,-6.713611 2.90625,-11.21875 0.5165,-3.689245 3.58302,-8.932129 6.625,-13.03125 3.04198,-4.099121 3.54084,-4.412767 3.54084,-4.412767 l -2.83522,-2.8795 z"
       id="path3229"
       style="font-size:medium;font-style:normal;font-variant:normal;font-weight:normal;font-stretch:normal;text-indent:0;text-align:start;text-decoration:none;line-height:normal;letter-spacing:normal;word-spacing:normal;text-transform:none;direction:ltr;block-progression:tb;writing-mode:lr-tb;text-anchor:start;color:#000000;fill:#cccccc;fill-opacity:1;stroke:none;stroke-width:4;marker:none;visibility:visible;display:inline;overflow:visible;enable-background:accumulate;font-family:Andale Mono;-inkscape-font-specification:Andale Mono" />
    <path
       d="m 454.74356,80.512928 c -10.61183,-0.578827 -20.77436,4.315829 -20.77436,4.315829 l 1.68765,3.621947 c 0,0 9.98769,-4.422155 18.86796,-3.937776 9.29496,0.506998 23.37898,4.597177 35.34375,4.78125 l 0.0625,-4 c -11.07135,-0.170329 -24.99034,-4.225042 -35.1875,-4.78125 z"
       id="path3245"
       style="font-size:medium;font-style:normal;font-variant:normal;font-weight:normal;font-stretch:normal;text-indent:0;text-align:start;text-decoration:none;line-height:normal;letter-spacing:normal;word-spacing:normal;text-transform:none;direction:ltr;block-progression:tb;writing-mode:lr-tb;text-anchor:start;color:#000000;fill:#cccccc;fill-opacity:1;stroke:none;stroke-width:4;marker:none;visibility:visible;display:inline;overflow:visible;enable-background:accumulate;font-family:Andale Mono;-inkscape-font-specification:Andale Mono" />
    <path
       d="m 471.6337,1136.8542 c 0,0 7.90249,-2.3447 15.69933,0.3133"
       id="path3249"
       style="color:#000000;fill:none;stroke:#cccccc;stroke-width:4;stroke-linecap:butt;stroke-linejoin:miter;stroke-miterlimit:4;stroke-opacity:1;stroke-dasharray:none;stroke-dashoffset:0;marker:none;visibility:visible;display:inline;overflow:visible;enable-background:accumulate" />
    <g
       transform="matrix(0.8660254,-0.5,0.5,0.8660254,-763.89506,492.51086)"
       id="g3584">
      <path
         d="m 686.94099,1242.6039 0,-57.2359 4.78442,45.009 -9.74605,0"
         id="path3578"
         style="fill:none;stroke:#000000;stroke-width:1px;stroke-linecap:butt;stroke-linejoin:miter;stroke-opacity:1" />
      <text
         x="744.93323"
         y="1152.8877"
         transform="scale(0.91563905,1.0921334)"
         id="text3580"
         xml:space="preserve"
         style="font-size:13.90618038px;font-style:normal;font-weight:normal;fill:#000000;fill-opacity:1;stroke:none;font-family:Bitstream Vera Sans"><tspan
           x="744.93323"
           y="1152.8877"
           id="tspan3582">N</tspan></text>
    </g>
  </g>
</svg>
